<svg xmlns="http://www.w3.org/2000/svg" width="131" height="121" viewBox="0 0 131 121"><g fill="none" fill-rule="evenodd"><path fill="#FFF" d="M39.877 3.26L27.61 4.89l-4.296 10.785-8.382 7.326 4.502 5.702 14.72-.818-1.915 6.349L7.366 59.025 3.891 78.528l16.153 24.455 48.864 7.934 51.934-37.24-2.659-12.415-5.723-11.398-6.339-6.31 4.907-10.785-1.021-9.359 4.091-4.68-9.409-15.874-10.425 2.846-10.635 8.348-26.089 1L44.818 4.243z"/><path fill="#F3BD48" fill-rule="nonzero" d="M112.682 73.396c.315.298.644.58.988.845.095-.182.183-.376.272-.553-.06-.044-.25-.143-.294-.176-.228-.21-.555-.481-.833-.691.156-.177.395-.492.655-.856.472-.652 1.022-1.465 1.416-2.045 0-.138.028-.281.044-.425.093-.918.14-1.84.14-2.763a19.561 19.561 0 0 1-2.171 3.675c-.49.667-1.028 1.299-1.61 1.89.291.195.571.407.838.635l.555.464zM78.85 61.329a9.525 9.525 0 0 0-.111-.426 2.479 2.479 0 0 1-.555.636c-1.022.85-1.077 1.038-1.493 2.508l-.04.144a23.15 23.15 0 0 0-.838 5.652 9.496 9.496 0 0 0 .667 4.138c.371-.248.766-.464 1.149-.68a6.104 6.104 0 0 0 2.026-1.497l.116-.16.189-.06a5.002 5.002 0 0 0 2.165-1.21c-.089-.16-.167-.321-.256-.487a36.231 36.231 0 0 1-2.997-8.602.121.121 0 0 1-.022.044zm2.814 9.133a5.007 5.007 0 0 1-1.371.624l-.444.144-.278.375a5.61 5.61 0 0 1-1.76 1.271c-.11.056-.216.116-.321.177-.555-2.116-.233-5.652.555-8.354l.039-.15c.322-1.148.383-1.364.843-1.773a35.292 35.292 0 0 0 2.737 7.664v.022zm-7.877 5.232c-1.443-.635-2.303-1.829-3.08-2.906l-.294-.403c-.217.784-.617 1.607-1.777 1.607-1.515 0-2.392-1.58-3.236-3.1-.655-1.165-1.327-2.37-2.12-2.552l-.15.254c-.589 1.028-1.321 2.299-3.053 2.299a4.315 4.315 0 0 1-.994-.122l-.205-.05-.133-.165a15.561 15.561 0 0 1-2.626-5 1.395 1.395 0 0 1-.716-1.658l.089-.42.422-.06a3.14 3.14 0 0 1 .5-.04c1.77 0 2.375 1.509 2.864 2.719.187.564.464 1.093.821 1.57.211-.194.422-.426.638-.664.733-.801 1.566-1.713 2.892-1.713a3.566 3.566 0 0 1 1.56.398l.161.077.094.155c.267.431.517.873.767 1.315.456.844.966 1.658 1.526 2.437a2.94 2.94 0 0 1 2.542-1.36 3.59 3.59 0 0 1 2.22.774l.134.105.055.16c.192.516.415 1.02.666 1.509 0-.702-.033-1.382 0-2.128v-.96a17.914 17.914 0 0 1-5.983-3.924c-.2-.182-.428-.359-.666-.552-.24-.194-.367-.288-.556-.437-.188-.149-.205-.171-.294-.26a24.132 24.132 0 0 1-2.553-3.16c-1.033-1.436-2.01-2.801-3.28-3.73a1.115 1.115 0 0 1-.267.04 1.113 1.113 0 0 1-.722-.288l-.11-.072a8.905 8.905 0 0 0-5.307 4c-1.11 1.835-1.849 4.2-2.46 7.09v.082c-.094.464-.166.94-.221 1.414v.32c0 .714-.04 1.415-.095 2.1.091 2.82.734 5.593 1.893 8.167l.178.265c.272.403.555.818.821 1.265l.417.713v.331c1.142.253 2.31.379 3.48.376 5.956 0 11.912-3.017 16.158-5.818zm-21.254-8.763c1.177-5.586 2.637-8.934 6.828-10.36a1.8 1.8 0 0 0 .999.277 17.016 17.016 0 0 1 2.853 3.354 24.066 24.066 0 0 0 2.637 3.26c.285.272.587.527.904.762.228.177.439.342.611.503a21.567 21.567 0 0 0 4.119 3.1 4.054 4.054 0 0 0-.627-.05 3.802 3.802 0 0 0-2.46.861c-.305-.48-.599-1-.899-1.53-.255-.447-.51-.895-.777-1.337l-.216-.354-.383-.182a4.362 4.362 0 0 0-1.92-.48c-1.594 0-2.615 1.021-3.37 1.84-.078-.172-.15-.354-.217-.52-.522-1.288-1.304-3.238-3.624-3.238-.21 0-.42.017-.628.05l-.988.149-.2.978a2.205 2.205 0 0 0 .822 2.343 16.495 16.495 0 0 0 2.675 4.972l.311.387.483.116c.387.094.784.142 1.183.144 1.892 0 2.853-1.188 3.474-2.21.419.567.79 1.168 1.11 1.795.916 1.658 1.954 3.509 3.964 3.514a2.308 2.308 0 0 0 1.904-.85 9.001 9.001 0 0 0 1.665 1.762c-4.041 2.52-9.348 4.972-14.643 4.972a15.54 15.54 0 0 1-3.114-.309c-2.531-4.79-3.386-9.415-2.476-13.724v.005zM73.638 25.72c.699.476 1.404.962 2.092 1.465l-.2-.244a9.296 9.296 0 0 0-.632-.707 3.424 3.424 0 0 1-1.205-.668 1.885 1.885 0 0 0-1.032-.498l.555.349.422.303z"/><path fill="#F3BD48" fill-rule="nonzero" d="M51.678 84.153a6.197 6.197 0 0 0-1.027-1.32l-.21-.183v-.85c-.184-.299-.389-.597-.605-.918a12.966 12.966 0 0 1-1.588-2.862 9.74 9.74 0 0 1-.489-2.243c-.044-.337-.088-.685-.155-1.06a1.406 1.406 0 0 0-.166-.332 2.359 2.359 0 0 1-.334-.78 13.705 13.705 0 0 1 0-3.198c.056-.702.112-1.426.106-2.083 0-2.454 1.321-5.94 2.22-8.25l.183-.475c.117-.303.234-.618.345-.933.253-.772.569-1.522.943-2.244.162-.244.367-.457.605-.63.152-.108.286-.238.4-.386.24-.37.452-.758.633-1.16.163-.41.39-.792.671-1.133a6.96 6.96 0 0 1 5.057-2.144 7.305 7.305 0 0 1 3.175.757 3.3 3.3 0 0 0-.122-.873c-.333-1.182-1.293-1.934-2.487-2.43a5.1 5.1 0 0 0-.405-.156c-.62-.22-1.257-.392-1.904-.513h-.105l.316.16c.06.037.117.078.172.121l.156.127.05.2c.072.279.04.575-.09.834v.43l-.354.166c-.322.142-.67.21-1.022.2h-.888a.875.875 0 0 0-.416.071c-3.553 1.868-5.695 4.061-6.384 6.525l-.16.553-.556-.138H47.2a.502.502 0 0 0-.144.033c-.119.04-.242.062-.367.066a.812.812 0 0 1-.594-.254c-.072.249-.139.508-.183.68l-.055.193-1.782 2.287-.877 1.105a9.982 9.982 0 0 1-5.312.95c-3.137-.27-18.257 5.83-20.311 6.078-2.32.315-4.568 2.299-6.25 3.918-.1.353-.206.734-.228.834a8.26 8.26 0 0 1-.46 1.398c-.197.39-.317.814-.356 1.248a4.75 4.75 0 0 1-.41 1.73c-.711 1.829-.556 5.525-.2 6.63.155.482.272.975.35 1.475.205 1.205.316 2.586.554 3.69a25.903 25.903 0 0 0 2.115 3.178c.836.967 1.766 1.85 2.776 2.635.621.52 1.26 1.056 1.854 1.62a25.225 25.225 0 0 0 4.995 3.867 61.244 61.244 0 0 0 3.303 1.84c.249-.009.495.052.71.176.445.271.905.553 1.377.813.161.066.311.143.478.21.81.342 1.615.729 2.392 1.105a29.42 29.42 0 0 0 3.702 1.574c1.766.542 3.604.81 5.451.796 3.54.005 7.027-.845 10.164-2.475.225-.113.464-.195.71-.244.13-.022.257-.06.378-.11a4.43 4.43 0 0 0 1.11-1.133c.4-.578.898-1.083 1.471-1.491 2.776-5.288.305-12.3-1.81-17.128l-.072-.144zm-12.14-12.769c.087-.007.175-.007.262 0h.038-.238l-.555.072.494-.072zm-.171 8.316c-.71-.387-.972-1.658-1.055-2.166a14.03 14.03 0 0 1 .26-5.172l.1-.397.406-.061h.15a.782.782 0 0 1 .777.552l.028.105v.105a24.15 24.15 0 0 0 .238 6.37l.256 1.288-1.16-.624z"/><path fill="#F3BD48" fill-rule="nonzero" d="M128.513 81.462a44.446 44.446 0 0 1-.899-2.486 31.704 31.704 0 0 0-2.287-5.796 30.374 30.374 0 0 1-2.154-5.254l-.039-.122-.05-.127-.088-.226-.05-.122-.061-.116-.061-.122a11.133 11.133 0 0 0-.14-1.558c-.904-5.447-3.091-7.525-4.995-8.249l-.083-.176c.07-.457.095-.92.078-1.382a10.502 10.502 0 0 0-1.46-4.63c-.167-.315-.3-.552-.406-.806l-.277-.652c-.844-1.973-1.887-4.42-4.33-5.918h-.033l-.078-.044h-.105a18.254 18.254 0 0 0-1.888-.85c.678-.7 1.254-1.49 1.71-2.349l.261-.448a15.33 15.33 0 0 0 2.22-5.06c.667-3.533.28-7.182-1.11-10.498a9.206 9.206 0 0 0 1.815-1.912c.084-.116.189-.254.245-.32l.655-.752 1.665-1.536-.977-2.016-.455-.94a12.1 12.1 0 0 0-1.543-2.359 4.68 4.68 0 0 1-.472-.652 22.117 22.117 0 0 1-.844-2.807C111.306 7.431 109.502.464 102.236.464c-.862.004-1.72.106-2.56.304-3.247.735-5.467 2.718-7.249 4.315-.427.381-.805.724-1.188 1.044-.383.32-.666.553-.993.835l-.05.038A25.021 25.021 0 0 1 86.92 9.51c-.461.26-.91.47-1.427.707-.516.238-1.238.552-2.004.994l-.4-.132a31.86 31.86 0 0 0-1.842-.553 48.344 48.344 0 0 0-6.911-1.105 51.426 51.426 0 0 0-4.59-.22c-4.247 0-7.772.69-10.68 2.093a35.659 35.659 0 0 1-8.327-8.497l-.3-.42-.627-.884-1.054-.293-.489-.138a10.475 10.475 0 0 0-2.864-.404c-.477.003-.953.031-1.427.083h-.166a7.682 7.682 0 0 0-1.56-.226h-.555a47.95 47.95 0 0 0-7.283.834c-1.11.177-2.148.348-2.975.442a2.069 2.069 0 0 1-.266 0h-.644a7.069 7.069 0 0 0-2.22.31c-3.198 1.022-5.257 4.193-6.107 6.818a16.326 16.326 0 0 0-.666 3.353c-.06.514-.116.995-.21 1.47-.367 1.812-2.415 3.205-4.802 4.807a8.05 8.05 0 0 0-.844.326h-.05l-.438.088-1.316.282-.694 1.155-.327.552c-1.699 2.807-1.3 5.658 1.177 8.548.077.088.205.232.266.315l.128.232.377.68.66.414.306.198a13.547 13.547 0 0 0 7.4 2.045c2.234-.02 4.448-.425 6.544-1.2l-.206.266a13.098 13.098 0 0 1-2.109 1.845 27.718 27.718 0 0 0-3.036 2.608 6.98 6.98 0 0 0-1 1.354 33.3 33.3 0 0 1-1.665 1.342c-.816.636-1.743 1.36-2.647 2.21-3.331 3.139-6.195 6.078-8.72 8.935-.278.32-.556.646-.867.972a26.455 26.455 0 0 0-3.497 4.448 6.613 6.613 0 0 0-.627 1.547c-.083.11-.178.226-.272.359a11.89 11.89 0 0 0-1.321 2.006c-1.399 2.795-2.148 5.94-2.87 8.978l-.067.26c-.083.359-.172.718-.255 1.071a14.35 14.35 0 0 0-.183 4.896c.026.258.048.517.067.779v1.01c-.014.801.038 1.601.155 2.393.155.818.389 1.62.7 2.393.121.337.216.596.277.806l.227.796c1.033 3.58 1.921 6.674 3.858 9.807l.228.365a22.45 22.45 0 0 0 1.893 2.762l.638.757c3.82 4.536 8.143 9.68 14.532 12.625h.1l.078.033h.066c5.368 2.11 11.69 4.36 18.746 4.36 2.11.002 4.216-.209 6.283-.63a23.906 23.906 0 0 0 8.104 1.508h.14c.811-.012 1.62-.105 2.414-.276h.05l.194-.039c.522.257 1.071.453 1.638.586 2.462.533 4.974.803 7.493.806 1.592.013 3.18-.124 4.746-.409a18.935 18.935 0 0 0 3.597-1.176 14.693 14.693 0 0 1 1.715-.625l.134.078.71.43h1.782a50.172 50.172 0 0 0 14.432-2.21l.089.16.072.111c2.004 3.354 5.55 5.525 6.561 6.122 1.386.86 2.91 1.475 4.507 1.818 1.356.347 2.748.532 4.147.552a10.5 10.5 0 0 0 1.538-.105c3.497-.502 6.827-2.762 8.093-3.668 5.761-4.244 8.431-11.973 9.653-17.68.286-1.498.444-3.018.471-4.542.028-.658.056-1.238.106-1.796.488-4.973-.944-8.713-2.093-11.719zM41.693 3.558h.443-.649.205zm84.517 89.098a48.16 48.16 0 0 0-.117 1.962 23.817 23.817 0 0 1-.389 3.906c-1.11 5.077-3.38 11.873-8.16 15.398-1.665 1.221-4.201 2.636-6.35 2.95-.322.042-.646.062-.97.062a13.703 13.703 0 0 1-3.22-.448 10.407 10.407 0 0 1-3.508-1.414c-1.616-.923-3.947-2.73-5.174-4.78l-.044-.077c-.733-1.221-1.388-2.464-1.416-3.475-.227.138-.46.293-.688.447-.328.216-.66.442-1 .625h-.06c-4.413 1.734-10.547 2.513-14.71 2.513h-.672l-.144-.088a3.18 3.18 0 0 0-1.665-.459c-1.16.102-2.29.42-3.33.94-.92.41-1.878.73-2.86.956a21.83 21.83 0 0 1-4.007.337c-2.24-.001-4.473-.24-6.661-.713a4.286 4.286 0 0 1-.988-.392 3.718 3.718 0 0 0-.794-.31.9.9 0 0 1-.189.127c-.166 0-.388.061-.605.105a2.23 2.23 0 0 1-.905-.088c-.439.09-.884.15-1.332.182l.072.155a6.55 6.55 0 0 1-1.226-.166 19.391 19.391 0 0 1-7.083-1.657c-2.166.54-4.39.81-6.622.806-6.378 0-12.284-2.11-17.352-4.105-5.601-2.58-9.437-7.183-13.19-11.603l-.643-.768a18.941 18.941 0 0 1-1.554-2.281l-.233-.382c-1.666-2.674-2.437-5.392-3.425-8.84l-.233-.812c-.106-.354-.24-.713-.367-1.066a9.487 9.487 0 0 1-.516-1.713c-.08-.582-.113-1.17-.1-1.757 0-.415 0-.835-.033-1.26 0-.287-.045-.552-.072-.867a10.961 10.961 0 0 1 .088-3.63c.111-.453.217-.901.328-1.36.683-2.762 1.382-5.701 2.57-8.1.258-.487.565-.948.916-1.375.27-.326.52-.667.75-1.022.08-.164.14-.336.177-.514.065-.29.17-.571.31-.834a23.123 23.123 0 0 1 2.982-3.746l.927-1.034c2.442-2.762 5.212-5.613 8.465-8.669.766-.723 1.587-1.364 2.375-1.989.789-.624 1.538-1.199 2.22-1.828.14-.152.257-.32.35-.503.134-.259.302-.498.5-.713a23.32 23.32 0 0 1 2.62-2.21 15.267 15.267 0 0 0 2.775-2.525l.245-.31.3.072a.962.962 0 0 1 .554-.254c1.01-1.105 3.436-4.055 3.448-6.337a2.333 2.333 0 0 0-.167-.945.907.907 0 0 0-.289-.381 3.944 3.944 0 0 0-1.11-.503 8.572 8.572 0 0 1-.921-.359 3.41 3.41 0 0 1-.722-.453c-.687.608-1.43 1.15-2.22 1.619a17.027 17.027 0 0 1-8.549 2.525 9.676 9.676 0 0 1-5.306-1.437l-.133-.083-.072-.138a6.263 6.263 0 0 0-.672-.873c-.805-.939-1.91-2.21-.805-4.05l.139-.232.266-.05c.221-.053.435-.13.639-.231.28-.136.58-.227.888-.271l.51-.343c2.998-2.016 5.829-3.917 6.512-7.304.127-.624.194-1.204.26-1.768.077-.886.245-1.761.5-2.613.433-1.32 1.665-3.719 3.614-4.338.322-.092.658-.133.993-.121h.683c.224.001.448-.01.672-.033.91-.105 1.998-.282 3.147-.47a45.101 45.101 0 0 1 6.66-.773h.417c.298.02.594.067.883.143.204.058.415.093.627.105h.044c.234 0 .45-.033.661-.05.354-.041.71-.064 1.066-.066.616.004 1.228.09 1.82.26l.211.06.128.177a39.635 39.635 0 0 0 10.547 10.31c.266.144.555.31.832.492 2.637-1.856 6.167-2.762 10.78-2.762 1.293 0 2.681.066 4.246.204 2.119.181 4.22.517 6.29 1.006.616.154 1.11.326 1.576.475.558.224 1.148.36 1.749.403a3.687 3.687 0 0 0 1.792-.552 21.74 21.74 0 0 1 1.732-.857c.55-.249 1.11-.52 1.732-.867a27.682 27.682 0 0 0 3.886-2.918l.999-.845c.444-.365.883-.757 1.304-1.138 1.599-1.431 3.248-2.906 5.518-3.42a7.521 7.521 0 0 1 1.693-.205c4.252 0 5.329 4.15 6.278 7.813.166.652.327 1.27.505 1.862.144.503.318.998.522 1.48.097.227.212.445.344.653.2.306.416.601.65.884a8.434 8.434 0 0 1 1.11 1.657l.194.403-.328.304a6.173 6.173 0 0 0-.666.796c-.51.685-1.11 1.464-2.159 1.586a4.852 4.852 0 0 1-2.381-.553c-.81-.414-1.59-.88-2.337-1.398a32.473 32.473 0 0 0-.733-.48 3.943 3.943 0 0 0 0 1.105c.043.366.065.735.067 1.105.13-.018.258-.048.383-.089l.333-.116.266.227c.66.53 1.373.993 2.126 1.381l.117.066.383.21.11.061.073.1c2.115 2.729 3.08 7.144 2.348 10.724a9.143 9.143 0 0 1-.7 1.978c-.027.166-.044.331-.077.492-.362 1.549-1 3.022-1.882 4.348-.094.154-.178.304-.26.453l-.1.166.138-.045-.139.05a6.75 6.75 0 0 1-2.126 2.453 4.055 4.055 0 0 1-.966.442 13.562 13.562 0 0 0 3.187 1.475c.906.306 1.788.675 2.642 1.106 1.388.85 2.098 2.519 2.775 4.132.1.238.2.47.306.702.155.354.338.707.521 1.044a6.962 6.962 0 0 1 1.016 2.995c.015.184.015.368 0 .552 0 .155-.039.31-.06.464-.112.36-.112.745 0 1.105l.266.586-.6.238-.333.121.055.127c.52.125 1.008.357 1.433.68a4.925 4.925 0 0 1 1.032 1.066c.043-.002.085-.002.128 0 2.031 0 2.875 3.757 3.142 5.37.07.513.102 1.03.094 1.548-.008.267.003.535.033.8.185.095.336.244.433.426v.1a34.43 34.43 0 0 0 2.431 5.934 27.968 27.968 0 0 1 2.026 5.155c.284.906.622 1.779.972 2.707 1.232 2.862 2.342 5.868 1.993 10.05zM108.752 22.57a3.084 3.084 0 0 1-.394 0h-.266c.22.02.44.02.66 0z"/><path fill="#F3BD48" fill-rule="nonzero" d="M55.73 31.714a3.772 3.772 0 0 1 1.066-.663c.145-.055.289-.11.433-.155.907-.228 1.84-.336 2.776-.32l.938-.094h1.066c.186.011.372.037.555.077.36.04.715.107 1.065.2 2.804.79 5.263 2.353 7.544 3.867a18.693 18.693 0 0 1 2.498 2.066c.61.591 1.171 1.188 1.698 1.752.029.033.055.068.078.105a11.904 11.904 0 0 0 2.98 2.342c.179.075.365.127.556.155a1.666 1.666 0 0 1 1.343.873l.078.16a45.575 45.575 0 0 1 8.676-.95c1.38-.002 2.757.09 4.124.276.444-.364.916-.696 1.371-1.016a12.318 12.318 0 0 0 1.965-1.58c.444-1.995 1.71-4.056 2.942-6.078.233-.381.467-.757.689-1.105.094-.16.188-.332.288-.514a4.787 4.787 0 0 1 1.244-1.658h-.339c-1.499-.05-3.525-.094-3.575-.132-.347.215-.66.481-.927.79l-.055.055c-.145.15-.294.293-.444.437l-.178.176a8.95 8.95 0 0 1-1.943 1.608 3.972 3.972 0 0 1-1.987.553 3.443 3.443 0 0 1-3.108-1.934l-1.71.47-2.315.27c-.216-.552-2.942-1.149-2.725-2.033-1.665-1.238-2.46-4.133-4.774-5.155l-.438-.193a9.077 9.077 0 0 0-3.886-1.564l-1.604-.27v.05a11.404 11.404 0 0 0-2.504-.09 10.31 10.31 0 0 0-3.042-.325h-.227c-.666.038-2.22.127-2.909 1.348l-.433.796-.766 1.37h.5a4.57 4.57 0 0 0-1.949.701c-1.237.697-2.459 1.575-3.33 1.056l-1.826.85-.217.1c-.616.27-1.038.464-1.37.635.253.003.505.05.743.139 1.005.364 1.321 1.453 1.366 2.552zm7.089-7.464l.327-.597c.467-.829 1.616-.895 2.22-.928h.567c.4.002.801.028 1.199.077 1.752.261 3.425.907 4.896 1.89a1.327 1.327 0 0 1-.183-.752v-.69l.688.116c2.864.475 4.851 1.967 5.912 4.42l.4.94-1.017-.09a1.984 1.984 0 0 1-.444-.093c.519.441 1.005.92 1.455 1.43.271.323.523.66.755 1.012.207.33.443.643.705.934a24.06 24.06 0 0 0 3.619 3c.158.1.32.192.488.276.69.287 1.254.807 1.593 1.47l.222.552-.516.254a2.396 2.396 0 0 1-1.082.271 3.399 3.399 0 0 1-2.054-.923 3.145 3.145 0 0 0-1.11-.652l-.15-.038-.117-.1a45.283 45.283 0 0 1-3.802-3.867c-3.23-3.536-6.311-6.885-11.829-7.487a17.02 17.02 0 0 0-1.798-.105h-1.166l.222-.32zM40.46 27.012l.094.188-.044.21A10.092 10.092 0 0 1 39 30.885a4.93 4.93 0 0 1 1.521-.63l2.02-.441c.234-.188.461-.382.683-.553.483-.409.922-.812 1.288-1.182a9.78 9.78 0 0 0 .605-.674 2.025 2.025 0 0 1-1.42-1.105c-.1-.15-.195-.304-.312-.448-1.21-1.553-2.259-2.9-3.968-3.636l-.506-.215.167-.553c.18-.598.482-1.153.888-1.63l-.755-.17.6-.758c.21-.27.427-.552.644-.795.887-1 1.634-2.115 2.22-3.315l-.083.083c-.295.314-.589.635-.877.955.205-.414.416-.817.632-1.215-1.304 1.453-2.542 2.994-3.746 4.497-.927 1.16-1.882 2.36-2.87 3.509 2.298 1.116 3.819 2.525 4.73 4.403zm81.431 58.754c-.483-4.331-2.337-7.878-4.274-10.834-.039.11-.089.215-.133.326a10.213 10.213 0 0 1-1.321 2.375c.47 1.072.78 2.205.921 3.365.489 3.415.133 7.62-.827 9.984a21.58 21.58 0 0 1-2.298 4.32c-2.02 2.763-4.996 4.658-7.866 6.332-.638.37-1.287.768-1.948 1.166-1.304.801-2.642 1.614-3.986 2.299.173.16.279.379.295.613.433 2.337 1.942 4.116 4.612 5.448.844.39 1.763.59 2.693.585h.216c2.163-.04 4.281-.62 6.162-1.685 3.452-2.077 6.028-6.718 7.643-13.785.51-2.243.6-5.199.26-9.006-.043-.48-.088-.983-.149-1.503zm-34.46-22.962l-.227.26-.344-.056a2.228 2.228 0 0 1-.272-.088l-.134-.044v.94c.264.136.546.23.839.28l.81.133.555-.618c.546-.46.808-1.172.688-1.873l-.038-.255-.128-.226a2.315 2.315 0 0 0-1.665-1.144c-.095 0-.19-.033-.283-.038h-.084c-.266.002-.53.052-.777.149a6.15 6.15 0 0 1-.244-3.078v-.127l.089-.624.472-.608.222-.26c.356-.44.74-.86 1.149-1.254a4.03 4.03 0 0 1-1.027-.552l-.139-.089-1.843-1.392.655-1.52a18.162 18.162 0 0 0-4.513-.138l-.139.061a7.387 7.387 0 0 1-1.237.464c-.573.138-1.153.243-1.738.315-.411.048-.819.122-1.221.221l-.327.105c-.822.275-1.66.5-2.51.674a13.84 13.84 0 0 0-1.742.553c-.836.31-1.693.562-2.565.751l-.355.078a.862.862 0 0 0-.122-.067l-.322-.138-3.109-1.315.966 2.067c-.333.06-.677.121-1.021.17a18.92 18.92 0 0 1-1.271.156c.777.955 1.51 1.944 2.22 2.911 2.043 2.763 3.974 5.41 6.86 7.122.029-.083.056-.166.079-.254 1.11-3.608 2.425-7.702 6.522-8.205l.277-.033.211.193a8.274 8.274 0 0 1 2.165 4.26c.555 2.542 1.332 5.978 2.87 8.188l.322-.088a25.92 25.92 0 0 1 3.197-.702 1.023 1.023 0 0 1-.044-.403V67.6l-.161-.089c-.71-.408-1.432-.823-1.471-.856l-1.11-.884v-2.895a1.497 1.497 0 0 1-.972-1.448v-.265l.189-.182a1.34 1.34 0 0 1 .877-.376h.083a1.5 1.5 0 0 1 1.277.768l.055.1v.104c.08.436-.089.88-.438 1.155l-.056.072zm-17.557-4.475a7.89 7.89 0 0 1-2.22-3.177l-.056-.133-.35-.751-.321-.685 1.199.508.266.11c1.11.459 2.148 1.973 2.47 3.52l.322 1.597-1.31-.99z"/><path fill="#F3BD48" fill-rule="nonzero" d="M109.18 96.927c.244-.193.516-.398.788-.597H110c.283-.21.694-.513.888-.685a1.1 1.1 0 0 1 0-.132 3.35 3.35 0 0 1 .494-1.244l.122-.143c.12-.143.253-.273.4-.387.178-.132.363-.254.555-.365l.122-.066c.972-1.47 1.666-4.641 1.788-8.155 0-.79.11-3.193-.406-4.514a2.923 2.923 0 0 0-.466-.64c-.183-.21-.388-.432-.555-.614a13.665 13.665 0 0 1-.738-.823c-1.221-1.47-1.976-2.133-2.776-2.503a6.355 6.355 0 0 0-1.448-.442c-.411-.094-.877-.183-1.438-.315a31.78 31.78 0 0 0-7.216-.818 28.252 28.252 0 0 0-9.054 1.392c-.618.21-1.217.471-1.792.78-1.272.673-2.393 1.386-3.586 2.143-.589.376-1.194.763-1.838 1.155-.488.298-.971.646-1.487 1.017-.659.49-1.344.944-2.054 1.359-.6.337-1.194.619-1.77.89a37.77 37.77 0 0 0-1.26.613c-.464.236-.94.444-1.427.624l-.45.182a23.33 23.33 0 0 0-1.488.69c-.666.35-1.352.662-2.053.935-3.153 1.16-3.614 1.304-3.958 1.436-.172.072-1.793.73-2.22.95-.323.315-1.383 1.415-1.566 1.559-1.499 1.154-2.22 1.745-2.32 4.685-.128 4.193-.589 7.32-3.408 10.702a5.847 5.847 0 0 1-.295.354c.409.216.834.401 1.272.552.294 0 .627.033 1.01.033s.76 0 1.154-.027l.328.154a51.556 51.556 0 0 0 3.297-.243 18.048 18.048 0 0 0 3.03-.596l1.05-.338c.995-.345 2.006-.64 3.03-.884l.506 1.105h.039c-.13.083-.263.159-.4.227-.69.465-1.416.875-2.17 1.227l-.988.458c-.555.243-1.055.492-1.56.746h-.045c-.255.133-.444.227-.494.26 1.27.097 2.545-.03 3.77-.376a34.677 34.677 0 0 0 3.28-.972c.664-.28 1.342-.525 2.032-.735.749-.271 1.36-.497 1.948-.669.34-.1.684-.183 1.032-.248.311-.056.644-.094 1-.127.484-.06.971-.091 1.46-.094.355 0 .715 0 1.065.05l.672.055-.256.027.75.072-1.221 1.06-.877.769 1.665-.033c.46-.094 3.436-.669 3.885-.78l.617-.137a66.72 66.72 0 0 1 2.114-.476 24.51 24.51 0 0 0 3.459-1.033c.965-.368 1.91-.787 2.83-1.254l.417-.204c.5-.244 1.005-.492 1.488-.719l.4-.177c1.015-.464 2.053-.911 3.063-1.342 3.087-1.31 6-2.553 8.227-4.354zm-25.03 9.658l.084-.094.633-.072-.716.166z"/><path fill="#8A1E41" fill-rule="nonzero" d="M65.95 22.708h-.567c-.621.033-1.77.1-2.22.928l-.327.597-.178.32h1.177c.6.004 1.201.039 1.798.106 5.518.602 8.598 3.95 11.83 7.486a45.283 45.283 0 0 0 3.801 3.868l.117.1.15.038c.411.138.79.36 1.11.652a3.399 3.399 0 0 0 2.054.922 2.396 2.396 0 0 0 1.082-.27l.516-.254-.222-.553a3.147 3.147 0 0 0-1.593-1.47 5.48 5.48 0 0 1-.488-.276 24.06 24.06 0 0 1-3.62-3 6.86 6.86 0 0 1-.704-.934 10.6 10.6 0 0 0-.755-1.01c-.45-.512-.936-.99-1.454-1.432.143.048.292.08.444.094l1.015.088-.4-.939c-1.06-2.458-3.047-3.95-5.91-4.42l-.69-.116v.69c-.014.264.05.525.184.752a11.995 11.995 0 0 0-4.935-1.89c-.403-.049-.809-.075-1.215-.077zm7.743 2.857c.352.302.762.53 1.205.668.222.225.434.461.632.707l.2.244a74.983 74.983 0 0 0-2.092-1.465l-.445-.303-.555-.349c.396.05.765.225 1.055.498zm12.9 37.355c.089.035.18.065.272.088l.344.056.228-.26.072-.077c.35-.275.518-.72.439-1.155v-.105l-.056-.1a1.5 1.5 0 0 0-1.277-.768h-.05a1.34 1.34 0 0 0-.877.376l-.188.182v.266c-.02.64.37 1.22.971 1.447v.94-.94l.122.05zM57.102 48.34l-.05-.2-.156-.127c-.05-.044-.105-.072-.155-.11l-.322-.166c-.355-.072-.71-.133-1.055-.188-.638-.094-1.243-.171-1.77-.243l-.234-.033-.41.276a22.065 22.065 0 0 0-4.186 3.315A9.079 9.079 0 0 0 47.1 53.44a7.98 7.98 0 0 0-.41 1.26l-.467 1.43s-.083.31-.172.653c.154.163.369.255.594.254.125-.004.248-.026.366-.067a.502.502 0 0 1 .144-.033h.028l.555.138.161-.552c.689-2.464 2.831-4.658 6.384-6.525a.875.875 0 0 1 .416-.072h.888c.351.01.7-.057 1.022-.199l.355-.166v-.431c.136-.24.185-.518.139-.79zm-17.07 24.232l-.027-.105a.782.782 0 0 0-.777-.552h-.15l-.405.06-.1.398a14.03 14.03 0 0 0-.261 5.172c.083.525.344 1.78 1.055 2.166l1.154.624-.255-1.287a24.15 24.15 0 0 1-.239-6.37l.006-.106zm50.885-10.69c.373.283.825.445 1.294.463a1.109 1.109 0 0 0 1.17-.944l.029-.133-.028-.133c-.211-.867-1.055-1.033-1.61-1.149l-.216-.044-.317-.066-.238.22c-.269.315-.386.73-.322 1.139v.464l.238.182zm17.88 1.856a2.162 2.162 0 0 0 1.665-1.37l.094-.255-.127-.243a1.382 1.382 0 0 0-1.222-.79 1.35 1.35 0 0 0-1.16.68 1.651 1.651 0 0 0 .072 1.69l.228.393.45-.105zm.755-1.95l-.084-.04a.489.489 0 0 1 .061.04h.023zm-.433-.084h-.067.067zm-12.534 2.724l.116-.116.04-.16c.126-.417.043-.87-.223-1.215a1.53 1.53 0 0 0-1.238-.553 1.95 1.95 0 0 0-.893.204l-.245.117v.077h-.177v.552c-.016.371.125.732.388.995.322.322.76.503 1.216.503.379.004.744-.141 1.016-.404zm-.555-1.105l-.067-.083.028.034.039.05zm-.789-.31a.981.981 0 0 1 .222 0 1.031 1.031 0 0 0-.238-.027l.016.028zm4.225 2.592h.094l.089-.027c.721-.227 1.032-.895.927-2l-.028-.266-.21-.16a2.037 2.037 0 0 0-1.205-.442 1.44 1.44 0 0 0-1.11.553l-.178.226.055.282v.138c.122.586.35 1.69 1.566 1.696zm8.148 1.094l.222.216c.296.295.692.468 1.11.486a1.568 1.568 0 0 0 1.2-.591c.424-.55.579-1.26.421-1.934l-.033-.177-.128-.133a1.462 1.462 0 0 0-1.049-.502c-1.11 0-1.626 1.525-1.732 2.331l-.01.304zm1.177-1.663c.048-.062.1-.121.155-.177a1.25 1.25 0 0 0-.16.177h.005zm-.028.039zm-.144.232a.11.11 0 0 1 0 .044l-.033.077.033-.121zm-.222.552zM67.643 55.152a7.89 7.89 0 0 0 2.22 3.177l1.299.989-.322-1.597c-.322-1.547-1.382-3.061-2.47-3.52l-.267-.11-1.199-.508.322.685.35.751.067.133z"/><path fill="#8A1E41" fill-rule="nonzero" d="M124.306 82.556c-.35-.928-.689-1.8-.972-2.707a27.968 27.968 0 0 0-2.026-5.155 34.43 34.43 0 0 1-2.431-5.934v-.1a1.014 1.014 0 0 0-.433-.425 5.566 5.566 0 0 1-.033-.801 10.048 10.048 0 0 0-.095-1.547c-.266-1.613-1.11-5.37-3.141-5.37a1.672 1.672 0 0 0-.494.055l-.317.1-.089.314-.033.105-.028.1c-1.138 3.939-2.403 7.63-5.284 9.586a16.905 16.905 0 0 0-5.379-2.498c1.005-1.491 1.588-3.364 2.154-5.182.288-.917.555-1.868.927-2.763a26.933 26.933 0 0 0 5.895-1.707l.333-.122.6-.237-.267-.586a1.876 1.876 0 0 1 0-1.105c0-.155.044-.31.06-.464a3.492 3.492 0 0 0 0-.552 6.962 6.962 0 0 0-1.015-2.995c-.183-.337-.366-.69-.522-1.044a26.764 26.764 0 0 1-.305-.702c-.688-1.613-1.399-3.282-2.775-4.133-.854-.43-1.737-.8-2.643-1.105a13.562 13.562 0 0 1-3.186-1.475c-.094-.072-.2-.133-.288-.204l-.128-.105h-.161a1.801 1.801 0 0 0-.339-.034 2.09 2.09 0 0 0-.61.1c-.078 0-.139.039-.195.044-.238-.199-.21-.304-.188-.37.097-.238.224-.462.377-.669a5.1 5.1 0 0 0 .555-.955c.61-1.509.727-3.52-.388-4.608l-.322-.31-.394.21a2.91 2.91 0 0 0-.394.254l-.317.21a.165.165 0 0 0 0-.044c.677-1.73 1.321-3.37 2.709-4.182h.183c.425-.007.839-.14 1.188-.382l.161-.094.316-.17v-.366a3.05 3.05 0 0 0-.371-1.513.775.775 0 0 0 .15-.155.798.798 0 0 0 .06-.763l-.06-.154-.128-.11a2.415 2.415 0 0 0-1.532-.598 1.62 1.62 0 0 0-.983.337 4.787 4.787 0 0 0-1.243 1.658c-.1.182-.194.354-.289.514-.222.37-.455.746-.688 1.105-1.232 1.994-2.498 4.055-2.942 6.078a12.318 12.318 0 0 1-1.965 1.58c-.455.32-.927.652-1.371 1.016a30.285 30.285 0 0 0-4.124-.276 45.575 45.575 0 0 0-8.676.95l-.078-.16c-.268-.5-.775-.83-1.343-.873a2.278 2.278 0 0 1-.556-.155 11.903 11.903 0 0 1-2.941-2.348 1.006 1.006 0 0 0-.078-.105c-.528-.552-1.11-1.16-1.699-1.751a18.693 18.693 0 0 0-2.498-2.067c-2.281-1.53-4.74-3.094-7.543-3.867a7.408 7.408 0 0 0-1.066-.199 3.535 3.535 0 0 0-.555-.077h-1.066l-.938.094a10.632 10.632 0 0 0-2.775.32c-.326.26-.568.61-.694 1.006l-.228.734.766.056h.261a5.074 5.074 0 0 0 1.077-.127c-.097.222-.154.46-.167.701l-.044.696.694-.044c.607-.055 1.21-.15 1.804-.287.472-.1.96-.199 1.47-.26a8.09 8.09 0 0 0-.71 3.415c.031.27.104.536.217.784.077.176.13.362.155.553v.398c0 1.044-.05 2.475.727 3.265.344.357.82.557 1.316.553h.827l-.166-.724c-.556-2.481.083-5.973 1.91-7.288a21.885 21.885 0 0 1 3.78 2.591l.588.487a9.296 9.296 0 0 1 2.253 2.342 1.6 1.6 0 0 0-.45-.066c-.244 0-.484.067-.693.193l-.211.122-.067.237c-.518 1.842-.553 3.25-.105 4.222-.51.121-1.027.254-1.566.392-2.092.552-4.257 1.105-6.35 1.105a10.193 10.193 0 0 1-1.57-.116l-1.155-.188.505 1.05c.61 1.27 1.776 1.917 3.464 1.917a16.93 16.93 0 0 0 3.591-.552c.45-.105.883-.205 1.288-.282.808-.202 1.6-.463 2.37-.78a17.424 17.424 0 0 1 2.193-.651 20.553 20.553 0 0 0 2.43-.647l.356-.11c.546-.15 1.103-.257 1.665-.32a14.12 14.12 0 0 0 1.638-.288c.309-.087.61-.2.9-.337.236-.121.488-.21.748-.265a20.845 20.845 0 0 1 2.22-.116c2.804.055 5.585.507 8.26 1.342-1.082.255-2.098.691-2.558 1.746l-.195.442.389.288c.307.235.683.364 1.071.364a3.559 3.559 0 0 0 1.521-.464c.348-.186.722-.32 1.11-.398.823-.126 1.654-.189 2.487-.187a15.216 15.216 0 0 1 3.603.414c-3.542 1.53-7.217 3.11-9.515 6.078l-.094.121v.16c-.36 2.32.844 3.238 1.815 3.984.335.237.644.51.922.812l.144.171.222.04c2.453.425 4.613.69 6.7.944l2.62.331a19.349 19.349 0 0 1-2.476 7.349 66.001 66.001 0 0 0-4.657-.177c-1.205 0-2.41.039-3.736.127a.942.942 0 0 0-.072-.21l-.16-.624a.793.793 0 0 0-.795-.591 2.003 2.003 0 0 0-1.626 1.22v.111c-.012.136.003.273.044.403-1.08.167-2.147.401-3.197.702l-.322.089c-1.537-2.21-2.303-5.647-2.87-8.189a8.274 8.274 0 0 0-2.165-4.26l-.21-.193-.278.033c-4.097.503-5.384 4.597-6.522 8.205 0 .088-.05.171-.078.254-2.886-1.713-4.818-4.343-6.86-7.122a87.918 87.918 0 0 0-2.221-2.911 25.146 25.146 0 0 0-2.398-2.58l-.05-.045-.05-.027a6.349 6.349 0 0 0-.555-.299 7.305 7.305 0 0 0-3.175-.757 6.96 6.96 0 0 0-5.057 2.144 4.25 4.25 0 0 0-.672 1.133 8.54 8.54 0 0 1-.632 1.16 1.905 1.905 0 0 1-.4.387 2.442 2.442 0 0 0-.605.63c-.375.72-.69 1.471-.944 2.243-.11.315-.227.63-.344.933l-.183.476c-.888 2.31-2.22 5.795-2.22 8.249 0 .657-.05 1.38-.106 2.083a13.705 13.705 0 0 0 0 3.199c.063.277.176.541.333.779.07.102.126.214.167.331.066.376.11.724.155 1.061a9.74 9.74 0 0 0 .489 2.243c.405 1.017.939 1.979 1.587 2.862.217.32.422.619.605.917v.851l.211.183c.4.392.746.836 1.027 1.32l.072.11c2.115 4.852 4.58 11.863 1.81 17.128a6.091 6.091 0 0 0-1.471 1.492 4.43 4.43 0 0 1-1.11 1.133 1.738 1.738 0 0 1-.378.11c-.247.049-.486.13-.71.243a21.975 21.975 0 0 1-10.164 2.476 18.118 18.118 0 0 1-5.568-.774 29.42 29.42 0 0 1-3.746-1.608c-.777-.37-1.582-.757-2.393-1.105-.166-.066-.316-.143-.477-.21-.472-.27-.933-.552-1.377-.812a1.332 1.332 0 0 0-.71-.177 61.243 61.243 0 0 1-3.303-1.84 25.225 25.225 0 0 1-4.996-3.867 42.622 42.622 0 0 0-1.854-1.619 19.473 19.473 0 0 1-2.775-2.635 25.902 25.902 0 0 1-2.098-3.166c-.35-.602-.655-1.172-.916-1.658A43.77 43.77 0 0 1 7.188 81.8a16.549 16.549 0 0 1-.721-4.619c-.034-.502-.067-1.005-.111-1.52a8.935 8.935 0 0 0-.206-1.176 4.863 4.863 0 0 1-.166-1.21 6.29 6.29 0 0 1 .316-1.387c.106-.353.217-.724.294-1.105l.172-.884c.29-1.464.556-2.85.894-4.166.235-.959.526-1.903.872-2.829 2.825-5.287 7.1-9.707 10.546-13.26a97.022 97.022 0 0 1 2.931-2.917c3.07-2.945 6.184-5.63 9.475-8.481l.184-.155a41.844 41.844 0 0 1 4.507-3.227 39.96 39.96 0 0 0 4.901-3.552l1.754-1.553-.272.056-2.02.442a4.93 4.93 0 0 0-1.521.63 10.092 10.092 0 0 0 1.504-3.476l.045-.21-.095-.188c-.91-1.878-2.431-3.315-4.751-4.42.988-1.149 1.943-2.348 2.87-3.508 1.204-1.503 2.442-3.045 3.746-4.498a35.77 35.77 0 0 0-.632 1.216c.288-.32.555-.641.877-.956l.083-.083a14.703 14.703 0 0 1-2.22 3.315c-.217.26-.433.553-.644.796l-.6.757.755.171c-.4.47-.698 1.018-.877 1.608l-.167.552.506.216c1.71.735 2.775 2.083 3.968 3.635.117.144.211.299.311.448.274.57.8.978 1.421 1.105h.117c.788 0 1.232-.685 1.56-1.182.08-.133.169-.26.266-.382a17 17 0 0 1 2.176-1.817c1.665-1.271 3.43-2.586 3.886-3.934.31-.918-.927-3.023-1.344-3.536a32.584 32.584 0 0 0-4.518-4.316c-.433-.364-.855-.712-1.249-1.06l-.089-.078c-1.11-.989-2.548-2.21-4.046-2.21a2.91 2.91 0 0 0-2.465 1.586c-.744 1.315-1.388 2.696-2.015 4.033-1.987 4.21-3.847 8.183-7.977 9.901a.834.834 0 0 0-.488.857c-.754.348-1.536.634-2.337.856a14.801 14.801 0 0 1-3.885.553h-.617c-1.576-.1-2.736-.553-3.447-1.404a3.262 3.262 0 0 1-.555-.922l.922-.636c2.475-1.713 5.284-3.652 6.922-6.586.324-.58.595-1.189.81-1.818.164-.575.254-1.17.266-1.768.014-.381.055-.762.123-1.138.388-1.845.954-3.077 1.781-3.867l.111-.11.145-.111a3.894 3.894 0 0 1 1.56-.724A43.854 43.854 0 0 1 37.8 6.58c.555 0 1.221-.038 1.843-.038a10.743 10.743 0 0 1 3.508.442c.237.08.469.174.694.282a4.982 4.982 0 0 0 1.882 1.994c.278.19.544.394.8.613.027.058.051.117.071.177.086.24.218.462.389.652.455.455.94.877 1.454 1.265.355.282.722.553 1.066.873.555.47 1.06.956 1.582 1.431a32.765 32.765 0 0 0 4.685 3.802l.216.138c1.144.718 3.264 2.06 4.88 2.06 1.237 0 2.026-.79 2.159-2.16l.039-.414-.372-.188a2.679 2.679 0 0 0-.71-.232 19.413 19.413 0 0 1 7.82-1.425c4.57.045 9.084.983 13.29 2.762a33.292 33.292 0 0 1 8.592 5.144c-.422.459-1.066 1.15-.7 2.094l.134.354.377.038h.111c.644 0 1.033-.552 1.338-.978.128-.204.283-.39.46-.552.182-.05.368-.078.556-.083.169-.015.338.03.477.127 0 0 .078.077.072.249-.005.17-.133.22-.455.43-.427.282-1.232.807-.871 1.863.105.568.596.986 1.176 1 .794 0 1.593-.735 2.41-1.553l.26-.254.489-.475c.921-.906 1.665-1.625 3.114-1.625h.488c.222.143.433.3.633.47.496.45 1.088.783 1.732.972 2.276 2.31 2.775 7.675.955 10.863l-.128.06a1.492 1.492 0 0 0-.666.514l-.117.188.028.216c.03.327.03.656 0 .983a3.25 3.25 0 0 0 .033 1.188v.044l.14.387h.521c1.332 0 2.02-1.204 2.576-2.177.11-.193.222-.392.338-.552.368-.58.7-1.181.994-1.802.308-.63.543-1.294.7-1.978.732-3.58-.234-7.994-2.349-10.724l-.072-.1-.111-.06-.383-.21-.117-.066a12.684 12.684 0 0 1-2.126-1.382l-.266-.226-.333.116c-.125.04-.253.07-.383.088a9.861 9.861 0 0 0-.067-1.105 3.943 3.943 0 0 1 0-1.105c.228.144.478.31.733.481.747.517 1.528.984 2.337 1.398a4.852 4.852 0 0 0 2.381.552c1.066-.121 1.666-.9 2.16-1.585.199-.284.422-.55.666-.796l.327-.304-.194-.403a8.434 8.434 0 0 0-1.11-1.658 9.76 9.76 0 0 1-.65-.884 4.617 4.617 0 0 1-.344-.652 13.076 13.076 0 0 1-.522-1.48 46.578 46.578 0 0 1-.505-1.862c-.949-3.664-2.026-7.813-6.278-7.813a7.521 7.521 0 0 0-1.693.205c-2.27.513-3.919 1.989-5.517 3.42-.422.38-.86.773-1.305 1.138l-.999.906a27.682 27.682 0 0 1-3.886 2.917c-.61.348-1.16.597-1.731.868-.572.27-1.11.508-1.732.856a3.687 3.687 0 0 1-1.793.553 5.784 5.784 0 0 1-1.749-.404c-.45-.149-.96-.32-1.576-.475a43.483 43.483 0 0 0-6.29-1.006 48.147 48.147 0 0 0-4.246-.204c-4.612 0-8.143.9-10.78 2.763a10.228 10.228 0 0 0-.832-.492 39.635 39.635 0 0 1-10.547-10.31l-.127-.177-.211-.06a6.768 6.768 0 0 0-1.82-.26 9.513 9.513 0 0 0-1.067.066c-.21 0-.427.039-.66.05h-.045a2.966 2.966 0 0 1-.627-.105 4.671 4.671 0 0 0-.882-.144h-.417c-2.236.092-4.463.35-6.66.774-1.15.187-2.221.364-3.148.47a6.056 6.056 0 0 1-.672.032h-.705c-.335-.012-.67.03-.993.122-1.932.619-3.181 3.017-3.614 4.337a13.051 13.051 0 0 0-.5 2.614c-.066.552-.133 1.143-.26 1.768-.705 3.392-3.514 5.293-6.512 7.337l-.51.343a3.013 3.013 0 0 0-.888.27c-.207.102-.425.18-.65.232l-.266.05-.139.232c-1.11 1.823 0 3.11.805 4.05.249.27.474.563.672.873l.072.138.133.083a9.676 9.676 0 0 0 5.306 1.436 17.026 17.026 0 0 0 8.527-2.536c.79-.468 1.533-1.01 2.22-1.618.22.18.463.332.722.453.3.137.607.257.921.359.394.109.769.279 1.11.503.129.099.229.23.289.38.12.3.177.623.166.946 0 2.281-2.436 5.21-3.447 6.337a.962.962 0 0 0-.555.254l-.3-.072-.244.31c-.817.952-1.75 1.8-2.775 2.525a23.32 23.32 0 0 0-2.62 2.21 3.276 3.276 0 0 0-.5.712 2.287 2.287 0 0 1-.35.503c-.66.63-1.41 1.216-2.22 1.829a28.28 28.28 0 0 0-2.376 1.989c-3.252 3.055-6.022 5.89-8.465 8.669l-.927 1.033a23.123 23.123 0 0 0-2.98 3.746c-.141.263-.246.544-.311.834a2.203 2.203 0 0 1-.156.498c-.219.348-.458.684-.716 1.005-.363.431-.681.898-.949 1.393-1.199 2.398-1.898 5.315-2.57 8.138-.111.459-.217.906-.328 1.36a10.961 10.961 0 0 0-.088 3.63c0 .287.055.58.072.867.033.425.033.845.033 1.26-.013.587.02 1.174.1 1.756.118.586.29 1.16.516 1.713.128.354.261.713.367 1.067l.233.812c.988 3.436 1.765 6.155 3.425 8.84l.233.381c.461.797.98 1.56 1.554 2.282l.644.768c3.73 4.42 7.588 9.012 13.189 11.603 5.068 1.994 10.974 4.105 17.352 4.105a27.169 27.169 0 0 0 6.622-.807 19.391 19.391 0 0 0 7.083 1.658c.402.094.813.15 1.226.166l-.072-.155a10.18 10.18 0 0 0 1.332-.182c.293.09.6.12.905.088.217-.044.439-.088.605-.105a.9.9 0 0 0 .19-.127c.275.072.541.176.793.31.311.17.643.302.988.392 2.188.473 4.421.712 6.66.712a21.83 21.83 0 0 0 4.009-.337c.981-.226 1.939-.546 2.858-.956a9.286 9.286 0 0 1 3.33-.939 3.18 3.18 0 0 1 1.666.459l.144.088h.672c4.141 0 10.297-.779 14.71-2.514h.06c.34-.182.672-.409 1-.624.228-.155.46-.31.688-.448.028 1.011.683 2.255 1.416 3.476l.044.077c1.227 2.05 3.558 3.868 5.174 4.78a10.407 10.407 0 0 0 3.508 1.414c1.051.276 2.132.426 3.22.447.324 0 .648-.02.97-.06 2.149-.316 4.691-1.73 6.35-2.951 4.78-3.525 7.073-10.32 8.16-15.398.237-1.29.367-2.596.39-3.907 0-.64.06-1.304.116-1.961.35-4.221-.76-7.227-1.904-10.139zM62.44 38.55a.814.814 0 0 0 0-.05v.05zm.145 2.088a.077.077 0 0 0 0 .039v.06-.099zm.055.166a.231.231 0 0 0 0 .055v.033-.088zm.183.365l-.033-.045a.96.96 0 0 1-.055-.105l.033.061a.324.324 0 0 0 0 .044l.055.078v-.033zm-.194 6.11l.111.083-.11-.083zm.372.26l-.144-.088.122.072a.34.34 0 0 1 .078.038h.038l-.094-.022zm3.641-1.348h.09l.227-.039-.317.039zm3.337-.774h.066l.422-.11-.488.11zm1.476-.375l.133-.033-.133.033zm13.688-1.343H85.1h.31-.266zm3.53.381l.223.045.183.033-.405-.078zm1.705.354l-.183-.044-.3-.061-.344-.072c.216.044.433.083.644.133l.272.066-.09-.022zm.51.122l.156.038.594.155-.75-.193zm1.871 2.773h-.05l.1-.05-.05.05zm3.697-4.68a13.513 13.513 0 0 1-1.338-.331c.322-.243.666-.47.988-.707.128-.094.261-.183.372-.282.067.083.122.177.183.26.062.082.084.11.117.17.247.477.565.913.944 1.294a5.747 5.747 0 0 0-1.25-.404h-.016zm3.758 4.63h.155-.155zM44.856 10.984l.283.238-.288-.244.005.006zm-.133-.11l.072.06.045.039-.117-.1-.25-.193a.15.15 0 0 0-.044-.039l.294.232zm-.871-.636l.094.06-.122-.082.028.022zm0 0l-.078-.05.078.05zm-.09-.055a1.873 1.873 0 0 0-.177-.105l.178.105zm-.47-.276l-.162-.078a.516.516 0 0 1 .167.061l-.006.017zm44.09 5.525l.61-.282c.65-.298 1.321-.608 2.004-1.006a41.285 41.285 0 0 0 4.402-3.127c.536-.43 1.049-.887 1.537-1.37 1.577-1.48 3.536-3.315 5.507-3.315.636.01 1.257.202 1.787.552 1.066.663 1.71 3.083 2.182 4.851l.155.553c.257.878.566 1.74.927 2.58.367.84.677 1.704.927 2.586l.05.21.178.132c.135.101.26.216.371.343.016.247-.052.492-.194.696-.028.033-.105.105-.344.105-.555 0-1.504-.42-2.592-1.155a5.85 5.85 0 0 1-1.577-1.762 1.4 1.4 0 0 1 .056-.138c.038-.071.07-.145.094-.221.151-.025.3-.062.444-.11a2.544 2.544 0 0 0 1.038-.636c.294-.304.487-.69.555-1.105.111-.724-.233-1.63-1.46-2.133a21.452 21.452 0 0 0-.233-.801l-.555.381a7.184 7.184 0 0 0-2.264 3.105l.1-.165.138.066a16.582 16.582 0 0 0-1.054 7.249 10.309 10.309 0 0 0-2.87 1.105 3.476 3.476 0 0 0-.522-.73 1.882 1.882 0 0 0-.677-.453 1.722 1.722 0 0 0-.505-.105 4.604 4.604 0 0 0-1.338-.27 9.233 9.233 0 0 1-.622-.47 7.594 7.594 0 0 0-.755-.552l-.283-.183a50.254 50.254 0 0 0-6.56-3.702c.429-.28.878-.528 1.342-.745v.022zM24.917 27.073l-.355.06c.194 0 .383-.06.555-.099l-.2.04zm13.322 80.363l-.483-.05.483.05zm3.758-.078c-.233 0-.461.05-.694.067h-.189.189c.338 0 .683-.061 1.021-.094l-.327.027zm1.86-.254c-.373.067-.75.127-1.11.177.21-.027.41-.066.615-.1l.516-.077h.111-.133zm.355-.071c.31-.061.621-.128.926-.205-.288.066-.599.133-.91.193l-.017.012zm4.679-1.47h.055l.145-.066-.2.066zm63.962-35.179a19.561 19.561 0 0 0 2.17-3.674c.001.923-.045 1.845-.138 2.763 0 .143-.028.287-.045.425a14.205 14.205 0 0 1-.821 3.464 5.725 5.725 0 0 1-.394.856 12.53 12.53 0 0 1-.988-.844l-.555-.476a9.325 9.325 0 0 0-.85-.657 17.041 17.041 0 0 0 1.638-1.868l-.017.011zM76.657 64.17l.04-.144c.415-1.47.47-1.658 1.492-2.508.22-.18.408-.394.555-.636.04.138.078.282.111.426a.121.121 0 0 0 0-.045 36.231 36.231 0 0 0 2.998 8.603c.089.166.166.326.255.486a5.002 5.002 0 0 1-2.165 1.21l-.188.061-.117.16a6.104 6.104 0 0 1-2.026 1.498c-.383.215-.777.43-1.15.68a9.496 9.496 0 0 1-.665-4.14 23.15 23.15 0 0 1 .86-5.651zm-15.88-12.084c-.162-.066-.323-.116-.484-.171l-.1-.033c.198.058.393.126.583.204zm-.861-.287l-.228-.05.228.05zm-2.82-.11h-.105.105zm-1.46.453l.122-.056-.127.061.005-.005zm-.21.104l-.2.094.138-.066.061-.028zm-.2.094l-.045.028-.056.028.1-.056zm-1.06.719h-.029l-.06.05.088-.05zm-.045 28.078v-.331l-.417-.713c-.266-.447-.555-.862-.821-1.265l-.178-.265a21.575 21.575 0 0 1-1.898-8.172c.055-.685.1-1.387.094-2.1v-.32c.056-.475.128-.95.222-1.414v-.083c.61-2.89 1.321-5.255 2.46-7.09a8.905 8.905 0 0 1 5.306-4l.111.073c.198.179.454.28.722.287.09-.002.18-.015.266-.039 1.271.928 2.248 2.293 3.28 3.73a24.132 24.132 0 0 0 2.554 3.16c.089.088.194.177.294.26.1.083.355.298.555.436.2.138.466.365.666.553a17.914 17.914 0 0 0 5.984 3.923v3.088a13.94 13.94 0 0 1-.666-1.508l-.055-.16-.134-.105a3.59 3.59 0 0 0-2.22-.774 2.94 2.94 0 0 0-2.542 1.36c-.56-.78-1.07-1.594-1.527-2.437-.25-.442-.5-.884-.766-1.315l-.094-.155-.161-.077a3.566 3.566 0 0 0-1.56-.398c-1.327 0-2.16.911-2.892 1.713-.216.237-.427.47-.638.663a5.516 5.516 0 0 1-.822-1.57c-.488-1.21-1.11-2.718-2.864-2.718a3.14 3.14 0 0 0-.5.039l-.421.06-.09.42c-.199.653.104 1.353.717 1.658a15.561 15.561 0 0 0 2.625 5l.134.166.205.05c.325.079.659.12.994.121 1.731 0 2.464-1.27 3.052-2.298l.15-.254c.794.182 1.466 1.386 2.12 2.552.845 1.52 1.722 3.094 3.237 3.1 1.16 0 1.56-.823 1.776-1.608l.294.403c.778 1.105 1.666 2.271 3.081 2.907-4.246 2.806-10.202 5.823-16.186 5.823-1.16 0-2.315-.126-3.447-.376zm18.39 29.72l-.172.05.172-.05zm1.46-.553l.15-.066h.055l-.205.066zm1.06-.43l.433-.172-.433.171zm.75-.277l-.112.039.25-.083-.139.044zm7.132 0h.516-.516zm1.454-.11l.467-.045-.467.045zm1.588-.172l.472-.066.366-.05-.838.116zm2.775-.43l.838-.155-.838.154zm2.193-.465l.189-.044.333-.077-.522.121zm1.776-.47h-.05.067l.122-.038.094-.028-.233.067zm5.18-5.37l-.4.177c-.483.227-.989.475-1.488.718l-.417.205c-.92.467-1.865.886-2.83 1.254a24.51 24.51 0 0 1-3.464 1.006c-.71.143-1.438.314-2.115.475l-.616.138c-.46.11-3.436.685-3.886.779l-1.665.033.877-.768 1.221-1.06-.75-.073.256-.027-.671-.055a11.376 11.376 0 0 0-2.526.044c-.355.033-.688.072-1 .127a10.41 10.41 0 0 0-1.032.248c-.588.172-1.199.398-1.948.669-.69.21-1.367.456-2.032.735-.91.315-2.087.69-3.28.972-1.224.346-2.5.473-3.77.376.05-.033.24-.127.495-.26h.044a40.943 40.943 0 0 1 1.56-.746l.988-.458c.754-.352 1.48-.762 2.17-1.227.138-.068.271-.144.4-.226h-.039l-.505-1.105a31.412 31.412 0 0 0-3.03.884l-1.05.337c-1.426.483-2.9.815-4.396.989l-.822.083c-.671.06-1.437.121-2.22.154h-.966c-.438 0-.827 0-1.165-.044-.228 0-.439-.044-.617-.077a7.235 7.235 0 0 1-1.665-.674c-.327-.166-.66-.326-.999-.47l.061-.066c.433-.453.833-.906 1.205-1.37a15.537 15.537 0 0 0 1.415-2.106 13.758 13.758 0 0 0 1.61-8.591A21.436 21.436 0 0 0 56.94 87.5a51.777 51.777 0 0 0-1.327-3.563c.51 0 1.027.027 1.532.027 2.775 0 6.689-.232 9.697-1.342.666-.263 1.319-.56 1.954-.89a20.117 20.117 0 0 1 1.532-.724l.461-.182c.438-.177.894-.354 1.327-.58.433-.227.832-.42 1.276-.63a41.165 41.165 0 0 0 1.71-.856 22.039 22.039 0 0 0 1.965-1.31c.494-.36 1.01-.735 1.52-1.044.634-.392 1.228-.768 1.81-1.144 1.194-.762 2.32-1.48 3.609-2.166l.36-.188a13.14 13.14 0 0 1 1.538-.64 28.33 28.33 0 0 1 9.242-1.432 32.338 32.338 0 0 1 7.372.835c.437.107.867.241 1.287.403l.256.177.238.166.866.602.222-.138c.611.337 1.183.707 1.727 1.077l.366.254c.691.54 1.35 1.122 1.97 1.74.772.37 1.527 1.034 2.776 2.504.217.265.472.552.738.823.167.182.372.403.555.613.184.192.341.407.467.641.516 1.32.433 3.724.405 4.514-.117 3.514-.816 6.685-1.788 8.155l-.122.066c-.192.11-.377.233-.555.365-.146.115-.28.244-.4.387l-.121.144a3.35 3.35 0 0 0-.495 1.243 1.1 1.1 0 0 0 0 .132c-.194.172-.605.475-.888.685h-.033c-.272.2-.555.404-.788.597-2.22 1.801-5.14 3.044-8.227 4.36-1.032.535-2.07.983-3.086 1.447l-.01-.05zm23.868-6.343c-1.616 7.067-4.191 11.708-7.644 13.786a12.996 12.996 0 0 1-6.161 1.685h-.217a6.358 6.358 0 0 1-2.692-.586c-2.67-1.331-4.18-3.11-4.613-5.448a.921.921 0 0 0-.294-.613c1.343-.685 2.681-1.497 3.986-2.298.66-.398 1.31-.796 1.948-1.166 2.875-1.658 5.845-3.542 7.866-6.332a21.58 21.58 0 0 0 2.298-4.32c.96-2.365 1.315-6.57.827-9.985a11.996 11.996 0 0 0-.922-3.364c.545-.73.99-1.53 1.321-2.376.045-.11.095-.216.134-.326 1.937 2.956 3.79 6.503 4.274 10.835.06.519.105 1.022.15 1.514.372 3.845.283 6.801-.228 9.044l-.033-.05z"/></g></svg>