<svg width="150" height="140" viewBox="0 0 150 140" fill="none" xmlns="http://www.w3.org/2000/svg">
<path fill-rule="evenodd" clip-rule="evenodd" d="M45.5711 3.22784L31.4669 5.10959L26.5275 17.5603L16.8901 26.0178L22.0664 32.6005L38.991 31.6561L36.7892 38.9857L8.191 67.6057L4.19556 90.1209L22.7678 118.353L78.95 127.512L138.662 84.5207L135.605 70.1882L129.025 57.0298L121.736 49.7452L127.378 37.2945L126.204 26.49L130.908 21.0872L120.09 2.76144L108.104 6.04701L95.8757 15.6843L65.8794 16.8388L51.2521 4.36266L45.5711 3.22784Z" fill="white"/>
<path d="M129.28 84.1963C129.642 84.5403 130.02 84.8658 130.416 85.1718C130.525 84.9617 130.626 84.7377 130.729 84.5334C130.66 84.4826 130.441 84.3683 130.391 84.3302C130.128 84.0878 129.753 83.7749 129.433 83.5325C129.612 83.3281 129.887 82.9645 130.186 82.5443C130.729 81.7916 131.361 80.853 131.814 80.1834C131.814 80.0241 131.846 79.859 131.865 79.6928C131.972 78.633 132.026 77.5686 132.026 76.503C131.35 78.0044 130.513 79.4271 129.529 80.7456C128.966 81.5156 128.348 82.2452 127.678 82.9275C128.013 83.1526 128.335 83.3974 128.642 83.6606L129.28 84.1963ZM90.381 70.2655C90.3423 70.1006 90.2997 69.9367 90.2534 69.7737C90.0841 70.0533 89.8682 70.3017 89.6153 70.508C88.4402 71.4893 88.377 71.7063 87.8987 73.4033L87.8527 73.5696C87.2644 75.6963 86.9408 77.8879 86.8892 80.0945C86.7873 81.7244 87.0493 83.3565 87.6561 84.8716C88.0826 84.5853 88.5368 84.336 88.9772 84.0866C89.8649 83.6794 90.6582 83.0908 91.3066 82.3584L91.44 82.1737L91.6573 82.1044C92.5906 81.856 93.4467 81.3756 94.1465 80.7075C94.0442 80.5228 93.9545 80.337 93.8522 80.1453C92.292 76.9939 91.1343 73.6573 90.4063 70.2147C90.4014 70.2332 90.3928 70.2505 90.381 70.2655ZM93.6165 80.8091C93.1302 81.1277 92.5988 81.3706 92.0401 81.5295L91.5296 81.6957L91.21 82.1287C90.6371 82.7454 89.9497 83.2438 89.1864 83.596C89.0599 83.6606 88.9381 83.7299 88.8173 83.8003C88.1792 81.3575 88.5494 77.2753 89.4555 74.156L89.5003 73.9829C89.8705 72.6576 89.9407 72.4082 90.4696 71.936C91.1752 74.9972 92.2312 77.9662 93.6165 80.7837V80.8091ZM84.5597 86.8492C82.9006 86.1161 81.9118 84.7377 81.0185 83.4944L80.6804 83.0291C80.4309 83.9342 79.971 84.8843 78.6373 84.8843C76.8954 84.8843 75.887 83.0603 74.9166 81.3055C74.1635 79.9606 73.3909 78.5695 72.4791 78.3594L72.3067 78.6526C71.6295 79.8394 70.7878 81.3067 68.7964 81.3067C68.4113 81.3044 68.0278 81.2572 67.6536 81.1658L67.4179 81.1081L67.2649 80.9176C65.9163 79.1946 64.893 77.2383 64.2456 75.1454C63.9047 74.9762 63.6347 74.6908 63.4839 74.3402C63.3331 73.9896 63.3113 73.5966 63.4224 73.2313L63.5247 72.7464L64.0099 72.6772C64.2 72.6464 64.3923 72.631 64.5848 72.631C66.6199 72.631 67.3155 74.3731 67.8778 75.7699C68.0928 76.4211 68.4113 77.0318 68.8217 77.5824C69.0643 77.3585 69.3069 77.0906 69.5553 76.8159C70.3981 75.8912 71.3558 74.8383 72.8804 74.8383C73.5054 74.8522 74.1189 75.0093 74.674 75.2978L74.8592 75.3867L74.9672 75.5656C75.2742 76.0632 75.5617 76.5734 75.8491 77.0837C76.3734 78.0581 76.9598 78.9978 77.6037 79.8971C77.9155 79.4054 78.3483 79.0027 78.8602 78.7277C79.3721 78.4527 79.9459 78.3147 80.5264 78.327C81.453 78.3288 82.352 78.6435 83.0788 79.2206L83.2329 79.3418L83.2962 79.5265C83.5169 80.1222 83.7733 80.7041 84.0619 81.2686C84.0619 80.4582 84.0239 79.6731 84.0619 78.8119V77.7037C81.4888 76.6735 79.1491 75.1327 77.1828 73.1736C76.9529 72.9635 76.6907 72.7591 76.4171 72.5363C76.1411 72.3124 75.9951 72.2039 75.7778 72.0318C75.5617 71.8598 75.5421 71.8344 75.4398 71.7317C74.361 70.6007 73.379 69.3803 72.5044 68.0836C71.3167 66.4258 70.1934 64.85 68.7332 63.7775C68.6331 63.8054 68.53 63.8209 68.4262 63.8237C68.1187 63.8167 67.824 63.6986 67.5961 63.4912L67.4696 63.4081C64.9184 64.0991 62.7321 65.7537 61.3678 68.0259C60.0915 70.1443 59.2419 72.8746 58.5393 76.2109V76.3056C58.4313 76.8413 58.3485 77.3908 58.2853 77.938V78.3074C58.2853 79.1317 58.2393 79.941 58.176 80.7318C58.2807 83.9873 59.02 87.1886 60.3525 90.1602L60.5572 90.4661C60.8699 90.9313 61.1953 91.4104 61.5012 91.9265L61.9806 92.7496V93.1317C63.2936 93.4238 64.6366 93.5692 65.9818 93.5658C72.8298 93.5658 79.6778 90.0828 84.5597 86.8492ZM60.1226 76.7328C61.4759 70.284 63.1545 66.4189 67.9732 64.7727C68.3166 64.9901 68.716 65.1013 69.1218 65.0925C70.3776 66.235 71.4803 67.5366 72.4021 68.9645C73.3018 70.3052 74.3163 71.5644 75.434 72.728C75.7617 73.042 76.109 73.3364 76.4734 73.6077C76.7356 73.812 76.9782 74.0025 77.1759 74.1884C78.6064 75.5671 80.1964 76.7686 81.9118 77.7672C81.6734 77.7292 81.4324 77.7099 81.1909 77.7094C80.1609 77.6958 79.1592 78.0478 78.3625 78.7034C78.0118 78.1493 77.6738 77.549 77.3289 76.9371C77.0357 76.4211 76.7425 75.9039 76.4355 75.3936L76.1871 74.9849L75.7468 74.7748C75.0629 74.4227 74.3076 74.2331 73.5392 74.2207C71.7065 74.2207 70.5326 75.3994 69.6645 76.3449C69.5748 76.1463 69.492 75.9362 69.415 75.7445C68.8148 74.2576 67.9157 72.0064 65.2482 72.0064C65.0068 72.0064 64.7653 72.0261 64.5262 72.0642L63.3902 72.2362L63.1603 73.3652C63.029 73.8592 63.049 74.3815 63.2176 74.8639C63.3862 75.3464 63.6955 75.7667 64.1054 76.0701C64.7944 78.1467 65.8349 80.0884 67.181 81.81L67.5386 82.2568L68.0939 82.3907C68.5389 82.4992 68.9953 82.5546 69.4541 82.557C71.6295 82.557 72.7344 81.1855 73.4484 80.0056C73.9301 80.6602 74.3567 81.354 74.7246 82.0779C75.7778 83.9919 76.9713 86.1288 79.2823 86.1346C79.6983 86.155 80.1132 86.0768 80.4935 85.9063C80.8739 85.7359 81.2089 85.4779 81.4715 85.1533C82.0153 85.9149 82.6593 86.5992 83.3858 87.1874C78.7396 90.0967 72.6378 92.9274 66.5498 92.9274C65.3474 92.9297 64.1479 92.8102 62.9694 92.5706C60.0593 87.0408 59.0763 81.7015 60.1226 76.727V76.7328ZM84.3884 29.1568C85.1921 29.7063 86.0027 30.2673 86.7937 30.848L86.5638 30.5663C86.3356 30.282 86.093 30.0096 85.8371 29.7502C85.328 29.59 84.8567 29.3276 84.4517 28.979C84.1251 28.6684 83.7105 28.4674 83.2651 28.4041L83.9032 28.807L84.3884 29.1568Z" fill="#9E9E9E"/>
<path d="M59.1394 96.6147C58.8162 96.0555 58.419 95.5428 57.9586 95.0908L57.7172 94.8795V93.8983C57.5056 93.5531 57.2699 93.209 57.0215 92.8385C56.2764 91.819 55.6629 90.7088 55.1957 89.5344C54.9073 88.6966 54.7186 87.8274 54.6335 86.945C54.5829 86.556 54.5323 86.1542 54.4553 85.7213C54.4088 85.5856 54.3446 85.4567 54.2644 85.338C54.0832 85.0636 53.9531 84.7585 53.8804 84.4375C53.7369 83.2111 53.7369 81.972 53.8804 80.7456C53.9448 79.9352 54.0092 79.0994 54.0023 78.3409C54.0023 75.5079 55.5211 71.4835 56.5547 68.8167L56.7652 68.2683C56.8997 67.9185 57.0342 67.5549 57.1618 67.1912C57.4527 66.3 57.816 65.4342 58.2461 64.6006C58.4323 64.319 58.668 64.0731 58.9417 63.8733C59.1164 63.7487 59.2705 63.5986 59.4016 63.4277C59.6775 63.0006 59.9213 62.5527 60.1294 62.0886C60.3168 61.6152 60.5778 61.1742 60.9009 60.7806C61.6521 59.9936 62.555 59.3683 63.5546 58.9427C64.5542 58.5172 65.6295 58.3004 66.7152 58.3054C67.9821 58.3166 69.2301 58.6153 70.3658 59.1794C70.3641 58.8386 70.3169 58.4997 70.2255 58.1715C69.8426 56.807 68.7388 55.9388 67.366 55.3662C67.2134 55.2996 67.058 55.2395 66.9004 55.1861C66.1875 54.9321 65.4551 54.7336 64.7112 54.5939H64.5905L64.9538 54.7786C65.0228 54.8213 65.0883 54.8686 65.1516 54.9183L65.3309 55.0649L65.3884 55.2958C65.4712 55.6179 65.4344 55.9596 65.2849 56.2586V56.755L64.8779 56.9467C64.5077 57.1106 64.1076 57.1891 63.7028 57.1775H62.6819C62.5181 57.1653 62.3539 57.1934 62.2036 57.2595C58.1184 59.416 55.6556 61.9477 54.8634 64.7923L54.6795 65.4307L54.0402 65.2714H53.9908C53.934 65.2758 53.8782 65.2887 53.8252 65.3095C53.6884 65.3557 53.547 65.3811 53.4032 65.3857C53.2755 65.3863 53.1489 65.3606 53.0315 65.3102C52.914 65.2598 52.8081 65.1856 52.7203 65.0924C52.6375 65.3799 52.5604 65.6789 52.5099 65.8775L52.4466 66.1003L50.3977 68.7405L49.3894 70.0162C47.4924 70.9378 45.3794 71.3173 43.2818 71.1129C39.675 70.8012 22.2905 77.8433 19.9289 78.1296C17.2614 78.4933 14.6768 80.7837 12.7428 82.6528C12.6279 83.0603 12.506 83.5001 12.4807 83.6156C12.3526 84.1683 12.1756 84.7084 11.9518 85.2295C11.7253 85.6797 11.5873 86.1692 11.5425 86.6702C11.5119 87.3598 11.352 88.0374 11.0711 88.6674C10.2536 90.7789 10.4318 95.0458 10.8411 96.3214C11.0193 96.8779 11.1539 97.447 11.2435 98.0243C11.4793 99.4154 11.6069 101.01 11.8805 102.284C12.6001 103.566 13.4129 104.792 14.3123 105.953C15.2735 107.069 16.3428 108.089 17.504 108.995C18.218 109.595 18.9527 110.214 19.6357 110.865C21.3562 112.589 23.2857 114.089 25.3788 115.329C26.6226 116.077 27.8891 116.785 29.1765 117.454C29.4628 117.443 29.7456 117.514 29.9928 117.657C30.5045 117.97 31.0333 118.295 31.576 118.595C31.7612 118.672 31.9336 118.76 32.1256 118.838C33.0569 119.233 33.9825 119.679 34.8759 120.113C36.2517 120.816 37.6739 121.423 39.1323 121.931C41.1628 122.556 43.2761 122.866 45.3997 122.85C49.4699 122.855 53.4791 121.874 57.0859 119.992C57.3446 119.862 57.6194 119.767 57.9023 119.711C58.0517 119.685 58.1978 119.641 58.3369 119.584C58.8372 119.228 59.2695 118.785 59.6131 118.276C60.073 117.608 60.6456 117.025 61.3044 116.554C64.4962 110.45 61.6551 102.355 59.2234 96.7809L59.1394 96.6147ZM45.1812 81.8735C45.2813 81.8654 45.3825 81.8654 45.4825 81.8735H45.5262H45.2525L44.6144 81.9566L45.1824 81.8735H45.1812ZM44.9846 91.4739C44.1683 91.0271 43.8671 89.5598 43.7716 88.9734C43.5014 86.9817 43.6028 84.957 44.0706 83.0026L44.1855 82.5442L44.6523 82.4738H44.8248C45.0229 82.4663 45.2178 82.5248 45.3794 82.64C45.5409 82.7552 45.66 82.9209 45.7182 83.1111L45.7504 83.2323V83.3535C45.5176 85.8062 45.6096 88.279 46.024 90.7074L46.3184 92.1943L44.9846 91.4739Z" fill="#9E9E9E"/>
<path d="M147.482 93.508C147.109 92.5619 146.764 91.6048 146.448 90.6381C145.793 88.3264 144.912 86.0852 143.819 83.9469C142.806 82.0072 141.977 79.9765 141.342 77.8814L141.297 77.7406L141.24 77.594L141.139 77.3331L141.081 77.1922L141.011 77.0583L140.941 76.9175C140.929 76.3149 140.875 75.7138 140.78 75.1188C139.74 68.8305 137.226 66.4316 135.037 65.5958L134.941 65.3926C135.022 64.865 135.051 64.3305 135.031 63.7971C134.895 61.9083 134.32 60.0777 133.352 58.452C133.16 58.0884 133.007 57.8148 132.886 57.5216L132.567 56.7689C131.597 54.4911 130.397 51.6662 127.589 49.9368H127.551L127.461 49.886H127.34C126.636 49.518 125.911 49.1903 125.169 48.9048C125.949 48.0966 126.611 47.1846 127.136 46.193L127.436 45.6758C128.632 43.8999 129.497 41.9206 129.988 39.8343C130.755 35.7556 130.31 31.543 128.712 27.7149C129.509 27.0834 130.212 26.34 130.799 25.5075C130.895 25.3736 131.016 25.2143 131.08 25.1381L131.834 24.27L133.748 22.4967L132.625 20.1694L132.101 19.0842C131.618 18.1101 131.022 17.1961 130.327 16.3608C130.125 16.1261 129.944 15.8742 129.785 15.6081C129.39 14.5507 129.066 13.4681 128.814 12.3676C127.698 8.04304 125.624 0 117.269 0C116.278 0.0046178 115.292 0.122372 114.326 0.350952C110.593 1.19947 108.04 3.48874 105.991 5.3324C105.5 5.77224 105.066 6.16822 104.625 6.53764C104.185 6.90707 103.86 7.17605 103.484 7.50161L103.426 7.54548C102.252 8.61386 100.992 9.58305 99.6596 10.4431C99.1295 10.7433 98.6133 10.9857 98.0189 11.2593C97.4256 11.5341 96.5954 11.8966 95.7147 12.4069L95.2548 12.2545C94.5554 12.0203 93.8491 11.8074 93.137 11.6161C90.5224 10.9986 87.8668 10.5723 85.1909 10.3404C83.4364 10.1768 81.6755 10.0921 79.9135 10.0864C75.0304 10.0864 70.9775 10.883 67.634 12.5027C63.918 9.79428 60.6816 6.47835 58.0598 2.69333L57.7149 2.20846L56.994 1.18793L55.7821 0.849674L55.2199 0.69036C54.149 0.382753 53.0408 0.225791 51.927 0.223963C51.3785 0.227426 50.8312 0.259751 50.2863 0.319782H50.0954C49.508 0.171291 48.907 0.0838626 48.3018 0.0588769H47.6636C44.852 0.164798 42.0526 0.486675 39.2899 1.02169C38.0136 1.22602 36.8202 1.42344 35.8693 1.53195C35.7675 1.53854 35.6653 1.53854 35.5635 1.53195H34.823C33.9587 1.51418 33.097 1.63499 32.2705 1.88983C28.5936 3.06968 26.2262 6.73044 25.2489 9.76086C24.8595 11.0207 24.6028 12.3181 24.4832 13.6317C24.4142 14.2251 24.3498 14.7804 24.2417 15.3288C23.8197 17.4206 21.465 19.0288 18.7205 20.8782C18.3903 20.9853 18.0663 21.1109 17.7501 21.2546H17.6926L17.189 21.3561L15.6759 21.6817L14.878 23.0151L14.502 23.6523C12.5486 26.8929 13.0073 30.1842 15.8553 33.5206C15.9438 33.6222 16.091 33.7884 16.1611 33.8842L16.3083 34.1521L16.7418 34.9371L17.5006 35.415L17.8525 35.6436C20.4025 37.2379 23.3572 38.0578 26.3607 38.0045C28.9293 37.9814 31.4749 37.5138 33.8848 36.6191L33.648 36.9262C32.9179 37.7212 32.1049 38.4353 31.2231 39.0562C29.9888 39.974 28.8222 40.9802 27.7324 42.067C27.2878 42.5395 26.9017 43.0644 26.5826 43.6301C25.9612 44.1669 25.3228 44.6836 24.6683 45.1793C23.7301 45.9136 22.6642 46.7494 21.6248 47.7307C17.795 51.3545 14.502 54.7474 11.5989 58.0457C11.2792 58.4151 10.9596 58.7915 10.602 59.1678C9.0828 60.7302 7.73485 62.4517 6.58128 64.3028C6.26682 64.8651 6.02459 65.4652 5.86038 66.0887C5.76495 66.2157 5.65572 66.3496 5.54764 66.5032C4.9648 67.2217 4.45593 67.9976 4.0288 68.819C2.42027 72.0457 1.5591 75.6764 0.728964 79.1836L0.651929 79.4838C0.556498 79.8983 0.454169 80.3127 0.358738 80.7202C-0.0335739 82.5782 -0.104747 84.4902 0.148331 86.3724C0.178225 86.6702 0.20352 86.9692 0.225365 87.2717V88.4377C0.209269 89.3624 0.269056 90.286 0.403579 91.2003C0.581793 92.1446 0.850839 93.0705 1.20842 93.9629C1.34754 94.3519 1.45677 94.651 1.5269 94.8934L1.7879 95.8123C2.97561 99.9452 3.9966 103.517 6.2237 107.134L6.48585 107.555C7.13129 108.671 7.85882 109.737 8.66236 110.744L9.39591 111.618C13.788 116.854 18.7585 122.793 26.1043 126.193H26.2193L26.309 126.231H26.3849C32.5568 128.667 39.8257 131.264 47.9384 131.264C50.3644 131.267 52.7859 131.023 55.1624 130.537C58.1445 131.655 61.2973 132.244 64.4801 132.278H64.6411C65.5736 132.264 66.5037 132.157 67.4166 131.959H67.4741L67.6972 131.914C68.2974 132.211 68.9286 132.437 69.5805 132.591C72.4112 133.206 75.2995 133.518 78.1957 133.521C80.0261 133.536 81.852 133.378 83.6525 133.049C85.0728 132.736 86.4583 132.282 87.7882 131.691C88.43 131.41 89.0885 131.169 89.7601 130.97L89.9142 131.06L90.7305 131.556H92.7794C98.4048 131.523 103.995 130.663 109.373 129.005L109.475 129.19L109.558 129.318C111.862 133.19 115.939 135.696 117.102 136.385C118.695 137.378 120.447 138.088 122.284 138.484C123.843 138.885 125.443 139.098 127.052 139.121C127.643 139.125 128.234 139.084 128.82 139C132.841 138.421 136.669 135.812 138.125 134.766C144.749 129.866 147.819 120.944 149.224 114.355C149.553 112.626 149.734 110.871 149.765 109.112C149.797 108.352 149.83 107.682 149.887 107.038C150.448 101.297 148.802 96.9795 147.481 93.5092L147.482 93.508ZM47.659 3.57186H48.1684H47.4222H47.659ZM144.834 106.431C144.774 107.185 144.729 107.94 144.699 108.696C144.674 110.209 144.525 111.717 144.252 113.205C142.976 119.066 140.366 126.912 134.87 130.981C132.956 132.391 130.04 134.025 127.569 134.387C127.199 134.436 126.826 134.459 126.454 134.459C125.204 134.434 123.961 134.261 122.752 133.941C121.319 133.649 119.952 133.096 118.718 132.309C116.86 131.244 114.18 129.157 112.769 126.791L112.719 126.702C111.876 125.292 111.123 123.857 111.091 122.69C110.83 122.85 110.562 123.028 110.3 123.206C109.922 123.456 109.541 123.716 109.15 123.928H109.081C104.007 125.93 96.9542 126.829 92.1677 126.829H91.3951L91.2295 126.727C90.6523 126.377 89.9897 126.193 89.3151 126.197C87.9814 126.315 86.6822 126.682 85.4864 127.283C84.4286 127.756 83.3271 128.125 82.1981 128.386C80.6775 128.658 79.1353 128.788 77.5909 128.775C75.0155 128.774 72.448 128.498 69.9323 127.952C69.5364 127.849 69.1549 127.697 68.7964 127.5C68.5067 127.346 68.2004 127.226 67.8835 127.142C67.8175 127.2 67.7445 127.249 67.6661 127.288C67.4753 127.288 67.22 127.359 66.9705 127.41C66.6204 127.448 66.2662 127.413 65.93 127.308C65.4252 127.412 64.9136 127.481 64.3985 127.518L64.4813 127.697C64.0064 127.678 63.5345 127.614 63.0717 127.505C60.2612 127.389 57.498 126.74 54.9279 125.592C52.4375 126.216 49.8804 126.528 47.3141 126.523C39.9809 126.523 33.1904 124.087 27.3633 121.784C20.9235 118.805 16.513 113.492 12.1979 108.389L11.4586 107.502C10.8 106.669 10.2029 105.789 9.67186 104.869L9.40396 104.428C7.48845 101.341 6.60198 98.2032 5.46601 94.2226L5.19811 93.2852C5.07624 92.8766 4.92217 92.4621 4.77615 92.0546C4.51679 91.4156 4.31814 90.7535 4.18287 90.077C4.09088 89.4051 4.05294 88.7263 4.06789 88.0487C4.06789 87.5696 4.06789 87.0847 4.02995 86.594C4.02995 86.2627 3.97821 85.9568 3.94716 85.5931C3.74862 84.2003 3.78281 82.784 4.04834 81.4025C4.17597 80.8795 4.29784 80.3623 4.42547 79.8324C5.21076 76.6439 6.01445 73.2509 7.38037 70.4814C7.67701 69.9192 8.02999 69.387 8.43356 68.894C8.74399 68.5177 9.03144 68.124 9.29588 67.7142C9.38786 67.5249 9.45685 67.3263 9.49939 67.1208C9.57413 66.786 9.69485 66.4616 9.85582 66.158C10.8466 64.6012 11.9956 63.1519 13.2844 61.8334L14.3503 60.6397C17.158 57.4511 20.3429 54.1598 24.083 50.6318C24.9638 49.7971 25.9077 49.0571 26.8137 48.3356C27.7209 47.6152 28.5821 46.9514 29.3662 46.2253C29.5272 46.0498 29.6617 45.8559 29.7686 45.6446C29.9227 45.3456 30.1159 45.0697 30.3435 44.8215C31.284 43.898 32.2908 43.0452 33.3559 42.2701C34.5348 41.4339 35.6064 40.4548 36.5465 39.3552L36.8282 38.9973L37.1732 39.0804C37.3482 38.9159 37.5718 38.813 37.8101 38.7872C38.9714 37.5115 41.7607 34.1059 41.7745 31.4714C41.7865 31.0983 41.7211 30.7268 41.5825 30.3805C41.5129 30.2067 41.3982 30.0548 41.2502 29.9406C40.8573 29.6818 40.4268 29.4859 39.974 29.3599C39.6134 29.2424 39.2598 29.104 38.9151 28.9455C38.6176 28.8067 38.3388 28.631 38.0849 28.4225C37.295 29.1244 36.4407 29.7501 35.5324 30.2916C32.5719 32.1224 29.1792 33.1286 25.7031 33.2066C23.5525 33.2574 21.4335 32.6812 19.6024 31.5476L19.4495 31.4518L19.3667 31.2925C19.1391 30.9344 18.8806 30.5972 18.5941 30.2847C17.6685 29.2006 16.398 27.7333 17.6685 25.6091L17.8283 25.3413L18.1341 25.2836C18.3882 25.2224 18.6343 25.1335 18.8688 25.0169C19.1908 24.8599 19.5357 24.7548 19.8898 24.704L20.4762 24.3081C23.9232 21.9807 27.1782 19.7861 27.9635 15.876C28.1095 15.1556 28.1866 14.486 28.2625 13.8349C28.351 12.8121 28.5441 11.8019 28.8373 10.8183C29.3352 9.29447 30.7517 6.52494 32.9926 5.81034C33.3628 5.70413 33.7491 5.6568 34.1343 5.67065H34.9196C35.1772 5.67181 35.4347 5.65911 35.6923 5.63256C36.7385 5.51134 37.9895 5.307 39.3106 5.08996C41.8375 4.60215 44.397 4.30386 46.968 4.19758H47.4475C47.7901 4.22066 48.1304 4.27492 48.4627 4.36266C48.6973 4.42962 48.9399 4.47003 49.1836 4.48388H49.2342C49.5033 4.48388 49.7516 4.44578 49.9942 4.42616C50.4012 4.37882 50.8106 4.35227 51.2199 4.34996C51.9281 4.35458 52.6318 4.45386 53.3124 4.65012L53.555 4.71939L53.7022 4.92372C56.9671 9.61805 61.0805 13.6554 65.8288 16.8261C66.1347 16.9923 66.4669 17.184 66.7854 17.3941C69.8174 15.2514 73.876 14.2055 79.1799 14.2055C80.6666 14.2055 82.2624 14.2817 84.0618 14.441C86.4982 14.65 88.9138 15.0378 91.2939 15.6024C92.0021 15.7802 92.5701 15.9787 93.1059 16.1507C93.7475 16.4093 94.4258 16.5663 95.1169 16.616C95.8469 16.5854 96.5566 16.3659 97.1772 15.9787C97.8261 15.6195 98.4906 15.2894 99.1686 14.9894C99.801 14.7019 100.445 14.389 101.16 13.9885C102.745 12.9992 104.24 11.872 105.628 10.6198L106.777 9.64426C107.287 9.22289 107.792 8.77035 108.276 8.3305C110.114 6.67849 112.01 4.97567 114.62 4.38229C115.258 4.22955 115.911 4.15016 116.567 4.14563C121.456 4.14563 122.694 8.93659 123.785 13.1653C123.976 13.918 124.161 14.6315 124.366 15.3149C124.531 15.8956 124.731 16.4671 124.966 17.0235C125.077 17.2856 125.21 17.5372 125.361 17.7774C125.591 18.1306 125.84 18.4712 126.109 18.7979C126.608 19.3826 127.037 20.0247 127.385 20.7108L127.608 21.1761L127.231 21.527C126.951 21.8112 126.694 22.1186 126.465 22.4459C125.879 23.2367 125.189 24.1361 123.983 24.2769C123.031 24.3022 122.089 24.0824 121.245 23.6385C120.314 23.1606 119.417 22.6226 118.558 22.0246C118.28 21.8361 117.999 21.6513 117.716 21.4704C117.656 21.8936 117.656 22.323 117.716 22.7461C117.765 23.1686 117.79 23.5946 117.793 24.0218C117.942 24.001 118.089 23.9664 118.233 23.919L118.616 23.7851L118.922 24.0472C119.68 24.659 120.5 25.1935 121.366 25.6415L121.501 25.7177L121.941 25.9601L122.067 26.0305L122.151 26.146C124.583 29.2964 125.693 34.3933 124.851 38.5263C124.671 39.3159 124.401 40.0821 124.046 40.8098C124.015 41.0014 123.996 41.1919 123.958 41.3778C123.541 43.166 122.808 44.8665 121.794 46.3973C121.686 46.5751 121.589 46.7482 121.495 46.9203L121.38 47.1119L121.539 47.0599L121.379 47.1177C120.805 48.2472 119.966 49.2193 118.934 49.9495C118.588 50.1678 118.215 50.3394 117.824 50.4598C118.966 51.1845 120.198 51.7569 121.488 52.1626C122.53 52.5159 123.544 52.9419 124.526 53.4394C126.121 54.4207 126.938 56.3475 127.716 58.2096C127.831 58.4844 127.946 58.7522 128.068 59.02C128.246 59.4287 128.457 59.8362 128.667 60.2253C129.315 61.2726 129.715 62.4556 129.835 63.6829C129.852 63.8953 129.852 64.1077 129.835 64.3201C129.835 64.4991 129.79 64.678 129.766 64.8558C129.637 65.2714 129.637 65.7158 129.766 66.1314L130.072 66.8079L129.382 67.0827L128.999 67.2224L129.063 67.369C129.66 67.5133 130.222 67.7811 130.71 68.154C131.165 68.5017 131.565 68.9167 131.897 69.3847C131.946 69.3824 131.994 69.3824 132.044 69.3847C134.379 69.3847 135.35 73.7219 135.657 75.5841C135.737 76.1763 135.774 76.7732 135.765 77.3712C135.755 77.6794 135.768 77.9888 135.803 78.2947C136.015 78.4044 136.189 78.5764 136.3 78.7865V78.902C137.018 81.2678 137.954 83.5612 139.095 85.7525C140.066 87.6539 140.846 89.6474 141.425 91.7036C141.751 92.7496 142.14 93.7574 142.542 94.8287C143.959 98.1328 145.235 101.603 144.834 106.431ZM124.761 25.5202C124.61 25.5299 124.459 25.5299 124.308 25.5202H124.002C124.255 25.5433 124.508 25.5433 124.761 25.5202Z" fill="#9E9E9E"/>
<path d="M63.7984 36.0765C64.1615 35.7544 64.5758 35.4957 65.0241 35.3111C65.1908 35.2476 65.3563 35.1841 65.5219 35.1322C66.5647 34.869 67.6375 34.7443 68.7137 34.7628L69.7921 34.6542H71.0178C71.2317 34.6669 71.4455 34.697 71.6559 34.7431C72.0698 34.7893 72.478 34.8667 72.8804 34.974C76.1044 35.886 78.9316 37.6904 81.5543 39.4383C82.5786 40.1483 83.5396 40.9463 84.4264 41.8234C85.1277 42.5057 85.7728 43.1949 86.3787 43.846C86.412 43.8841 86.4419 43.9245 86.4684 43.9672C87.4593 45.0464 88.6161 45.9592 89.8947 46.6709C90.1005 46.7575 90.3144 46.8175 90.534 46.8498C90.8549 46.874 91.1647 46.979 91.4346 47.1552C91.7045 47.3313 91.9258 47.5729 92.0781 47.8577L92.1678 48.0424C95.4503 47.3572 98.7907 46.99 102.143 46.9457C103.73 46.9434 105.313 47.0496 106.885 47.2643C107.395 46.8441 107.938 46.4608 108.461 46.0914C109.274 45.5626 110.031 44.9513 110.72 44.2673C111.231 41.9642 112.687 39.5849 114.103 37.2506C114.371 36.8108 114.64 36.3767 114.895 35.9749C115.003 35.7902 115.111 35.5917 115.226 35.3815C115.558 34.6463 116.046 33.993 116.657 33.4675H116.267C114.543 33.4098 112.214 33.359 112.156 33.3151C111.758 33.5633 111.398 33.8704 111.091 34.2271L111.027 34.2906C110.861 34.4638 110.689 34.6288 110.517 34.7951L110.312 34.9983C109.659 35.7198 108.906 36.3448 108.078 36.8546C107.386 37.2657 106.598 37.4859 105.794 37.493C105.049 37.4959 104.319 37.288 103.687 36.893C103.055 36.4981 102.546 35.9322 102.22 35.2603L100.254 35.8029L97.5924 36.1146C97.344 35.4774 94.2098 34.7882 94.4593 33.7676C92.5449 32.3384 91.6308 28.9963 88.9703 27.8164L88.4667 27.5936C87.1379 26.6502 85.6078 26.0319 83.9987 25.7881L82.1544 25.4764V25.5341C81.2015 25.3934 80.236 25.3586 79.2754 25.4302C78.1346 25.1312 76.9558 25.0047 75.7778 25.055H75.5168C74.7511 25.0989 72.9644 25.2016 72.1722 26.6112L71.6743 27.5301L70.7936 29.1117H71.3685C70.5697 29.2057 69.803 29.4826 69.1276 29.921C67.7053 30.7257 66.3003 31.7393 65.2989 31.1401L63.1994 32.1214L62.9499 32.2368C62.2416 32.5485 61.7564 32.7725 61.3747 32.9699C61.6656 32.9734 61.9553 33.0276 62.229 33.1304C63.3845 33.5506 63.7467 34.8078 63.7984 36.0765ZM71.9491 27.4597L72.3251 26.7705C72.862 25.8135 74.1831 25.7373 74.8776 25.6992H75.5295C75.9894 25.7015 76.4505 25.7315 76.9081 25.7881C78.9225 26.0894 80.846 26.8352 82.5373 27.97C82.3828 27.708 82.3096 27.4058 82.3269 27.1018V26.3053L83.118 26.4392C86.4109 26.9876 88.6955 28.71 89.9154 31.5419L90.3753 32.627L89.206 32.5231C89.0323 32.5071 88.861 32.471 88.6955 32.4158C89.2922 32.9249 89.851 33.4779 90.3684 34.0666C90.68 34.4395 90.9697 34.8286 91.2365 35.2349C91.4745 35.6159 91.7458 35.9772 92.0471 36.3132C93.3181 37.6012 94.7118 38.7612 96.2081 39.7765C96.3897 39.892 96.576 39.9982 96.7691 40.0952C97.5625 40.4265 98.211 41.0268 98.6007 41.7922L98.856 42.4295L98.2627 42.7227C97.8783 42.9238 97.4521 43.031 97.0186 43.0355C96.1337 42.9601 95.3008 42.5843 94.657 41.97C94.2878 41.6334 93.8533 41.3771 93.3808 41.2173L93.2083 41.1734L93.0738 41.058C91.5291 39.6589 90.0694 38.1682 88.7024 36.5937C84.9886 32.5116 81.4462 28.6453 75.1018 27.9504C74.4153 27.8733 73.7252 27.8329 73.0345 27.8291H71.6939L71.9491 27.4597ZM46.2415 30.6483L46.3495 30.8653L46.2989 31.1078C45.9777 32.5431 45.3886 33.9043 44.5628 35.1195C45.101 34.7804 45.6922 34.5345 46.3116 34.3922L48.6341 33.8831C48.9032 33.666 49.1642 33.4421 49.4194 33.2447C49.9747 32.7725 50.4795 32.3073 50.9003 31.8801C51.144 31.6317 51.3761 31.372 51.5959 31.102C51.2443 31.0301 50.9139 30.8775 50.6307 30.6562C50.3475 30.435 50.1191 30.1509 49.9632 29.8263C49.8483 29.6532 49.739 29.4754 49.6045 29.3091C48.2133 27.5163 47.0072 25.9612 45.0422 25.1116L44.4605 24.8634L44.6525 24.225C44.8594 23.5346 45.2067 22.8939 45.6735 22.3432L44.8054 22.1469L45.4953 21.2719C45.7367 20.9602 45.9862 20.6346 46.2357 20.3541C47.2555 19.1996 48.1144 17.9124 48.7882 16.5271L48.6928 16.6229C48.3536 16.9854 48.0155 17.356 47.6844 17.7254C47.9201 17.2475 48.1627 16.7822 48.4111 16.3228C46.9118 18.0002 45.4884 19.7792 44.104 21.5143C43.0382 22.8535 41.9402 24.2388 40.8042 25.5653C43.4464 26.8536 45.194 28.4803 46.2415 30.6483ZM139.868 98.4768C139.313 93.4769 137.181 89.382 134.954 85.9695C134.909 86.0965 134.852 86.2177 134.801 86.3458C134.419 87.3236 133.908 88.2457 133.282 89.0877C133.823 90.3252 134.179 91.6332 134.341 92.9724C134.903 96.9148 134.494 101.769 133.39 104.498C132.701 106.256 131.814 107.929 130.748 109.486C128.426 112.675 125.004 114.863 121.704 116.796C120.971 117.223 120.224 117.682 119.464 118.142C117.965 119.066 116.427 120.005 114.881 120.796C115.08 120.98 115.202 121.233 115.221 121.503C115.718 124.201 117.453 126.255 120.523 127.793C121.494 128.243 122.55 128.474 123.62 128.468H123.868C126.355 128.422 128.79 127.752 130.953 126.523C134.922 124.125 137.884 118.767 139.741 110.609C140.327 108.019 140.43 104.607 140.04 100.212C139.99 99.6578 139.938 99.0771 139.868 98.4768ZM100.247 71.9683L99.9862 72.2685L99.5907 72.2038C99.4844 72.1767 99.3799 72.1428 99.2779 72.1023L99.1239 72.0515V73.1366C99.4274 73.2936 99.7516 73.4022 100.089 73.4599L101.02 73.6134L101.658 72.9C102.286 72.3689 102.587 71.547 102.449 70.7377L102.405 70.4433L102.258 70.1824C102.059 69.8313 101.784 69.5301 101.452 69.3013C101.12 69.0726 100.742 68.9223 100.344 68.8617C100.235 68.8617 100.125 68.8236 100.018 68.8178H99.9218C99.616 68.8202 99.3124 68.8779 99.0284 68.9899C98.6355 67.8486 98.5389 66.6256 98.7479 65.4365V65.2899L98.8502 64.5695L99.3929 63.8676L99.6482 63.5674C100.057 63.0595 100.499 62.5746 100.969 62.1197C100.547 61.9659 100.149 61.7512 99.7884 61.4825L99.6286 61.3797L97.5096 59.7727L98.2627 58.018C96.5464 57.7484 94.8033 57.6949 93.0738 57.8587L92.914 57.9291C92.4568 58.1499 91.9808 58.3292 91.4917 58.4647C90.8329 58.6241 90.166 58.7453 89.4934 58.8284C89.0209 58.8838 88.5518 58.9692 88.0896 59.0835L87.7136 59.2048C86.7685 59.5222 85.805 59.782 84.8277 59.9829C84.1467 60.1511 83.4777 60.3644 82.8248 60.6213C81.8636 60.9791 80.8782 61.2701 79.8756 61.4883L79.4674 61.5783C79.4228 61.5488 79.3759 61.5229 79.3272 61.5009L78.9569 61.3416L75.3823 59.8235L76.493 62.2098C76.1101 62.2791 75.7146 62.3495 75.3191 62.406C74.8341 62.4826 74.3467 62.5427 73.8577 62.5861C74.7511 63.6886 75.5939 64.8304 76.4102 65.9467C78.7592 69.1365 80.9794 72.1923 84.2976 74.1687C84.331 74.0729 84.362 73.9771 84.3884 73.8755C85.6647 69.7102 87.1766 64.9839 91.8872 64.4032L92.2057 64.3651L92.4483 64.5879C93.7417 65.9458 94.6076 67.6564 94.9376 69.5059C95.5757 72.4405 96.4691 76.4072 98.2374 78.9585L98.6076 78.8569C99.8147 78.5093 101.042 78.2386 102.283 78.0465C102.236 77.8964 102.219 77.7382 102.233 77.5813V77.5051L102.048 77.4023C101.231 76.9313 100.401 76.4522 100.356 76.4141L99.0802 75.3936V72.0515C98.7433 71.925 98.4544 71.6957 98.2539 71.3959C98.0535 71.0961 97.9516 70.7408 97.9626 70.3798V70.0739L98.1799 69.8638C98.4516 69.5998 98.8105 69.4453 99.1883 69.4297H99.2837C99.5841 69.4362 99.8777 69.5215 100.135 69.677C100.393 69.8325 100.605 70.0529 100.752 70.3163L100.815 70.4318V70.5518C100.907 71.0552 100.713 71.5677 100.312 71.8852L100.247 71.9683ZM80.0607 66.8022C78.9194 65.8117 78.0421 64.5511 77.5082 63.1345L77.4438 62.981L77.0414 62.114L76.6724 61.3232L78.0509 61.9096L78.3568 62.0366C79.633 62.5665 80.8265 64.3143 81.1967 66.1003L81.5669 67.9439L80.0607 66.8022Z" fill="#9E9E9E"/>
<path d="M125.253 111.362C125.534 111.139 125.847 110.902 126.159 110.672H126.196C126.522 110.43 126.994 110.08 127.217 109.882C127.214 109.831 127.214 109.78 127.217 109.729C127.308 109.217 127.502 108.729 127.785 108.293L127.926 108.128C128.063 107.963 128.216 107.813 128.385 107.681C128.59 107.529 128.803 107.388 129.024 107.26L129.164 107.184C130.281 105.487 131.079 101.826 131.22 97.7691C131.22 96.8571 131.346 94.083 130.753 92.5579C130.608 92.2884 130.428 92.0398 130.217 91.8191C130.007 91.5767 129.771 91.3204 129.579 91.1103C129.283 90.8052 129 90.4882 128.73 90.1601C127.326 88.4631 126.458 87.6977 125.539 87.2706C125.006 87.0345 124.447 86.8632 123.874 86.7603C123.401 86.6518 122.865 86.549 122.22 86.3966C119.5 85.7646 116.716 85.4477 113.924 85.4523C110.39 85.4158 106.873 85.9586 103.514 87.0593C102.803 87.3017 102.114 87.603 101.453 87.9598C99.9908 88.7367 98.7019 89.5598 97.3302 90.4338C96.653 90.8678 95.9574 91.3146 95.2169 91.7671C94.6558 92.1112 94.1005 92.5129 93.5072 92.9412C92.7495 93.5069 91.9619 94.031 91.1456 94.5101C90.4557 94.8992 89.7728 95.2247 89.1105 95.5376C88.6233 95.7644 88.1403 96.0004 87.6618 96.2452C87.1283 96.5177 86.581 96.7578 86.0211 96.9656L85.5037 97.1757C84.9243 97.421 84.3537 97.6867 83.7928 97.9723C83.0271 98.3764 82.2384 98.7365 81.4324 99.0517C77.8072 100.391 77.2771 100.557 76.8816 100.709C76.6838 100.793 74.8201 101.552 74.3291 101.806C73.9577 102.17 72.739 103.44 72.5286 103.606C70.8051 104.938 69.9761 105.621 69.8611 109.015C69.7139 113.855 69.1839 117.465 65.9427 121.37C65.835 121.51 65.7219 121.646 65.6035 121.778C66.0738 122.028 66.5624 122.241 67.066 122.415C67.4041 122.415 67.7869 122.454 68.2273 122.454C68.6676 122.454 69.1011 122.454 69.5541 122.422L69.9312 122.6C71.1975 122.547 72.4617 122.454 73.722 122.32C74.9007 122.191 76.0663 121.96 77.2058 121.632L78.4131 121.241C79.5571 120.843 80.7195 120.503 81.8969 120.221L82.4787 121.497H82.5235C82.374 121.592 82.2211 121.68 82.0636 121.759C81.2702 122.295 80.4355 122.769 79.5686 123.175L78.4326 123.704C77.7945 123.984 77.2196 124.272 76.639 124.565H76.5872C76.2941 124.719 76.0768 124.827 76.0193 124.865C77.4795 124.977 78.9454 124.831 80.3539 124.431C81.6286 124.12 82.8872 123.745 84.1251 123.309C84.8886 122.986 85.6681 122.703 86.4615 122.46C87.3226 122.148 88.0251 121.887 88.7012 121.688C89.0921 121.573 89.4876 121.477 89.8878 121.402C90.2453 121.337 90.6282 121.293 91.0375 121.255C91.594 121.186 92.1539 121.15 92.7162 121.147C93.1244 121.147 93.5383 121.147 93.9407 121.204L94.7133 121.268L94.419 121.299L95.2813 121.382L93.8775 122.606L92.8691 123.494L94.7835 123.456C95.3124 123.347 98.7341 122.683 99.2503 122.555L99.9597 122.397C100.767 122.201 101.577 122.017 102.39 121.847C103.743 121.549 105.073 121.15 106.367 120.655C107.477 120.23 108.563 119.746 109.621 119.207L110.101 118.972C110.676 118.69 111.256 118.404 111.812 118.142L112.271 117.937C113.438 117.402 114.632 116.886 115.793 116.388C119.343 114.876 122.693 113.441 125.253 111.362ZM96.4748 122.511L96.5714 122.403L97.2992 122.32L96.4748 122.511Z" fill="#9E9E9E"/>
<path d="M75.549 25.6796H74.8971C74.1831 25.7177 72.862 25.795 72.3446 26.7509L71.9686 27.4401L71.764 27.8095H73.1172C73.8071 27.8141 74.4981 27.8545 75.1845 27.9319C81.5289 28.6269 85.0702 32.492 88.7863 36.5741C90.1529 38.1489 91.6122 39.64 93.1565 41.0395L93.2911 41.1549L93.4635 41.1988C93.9361 41.3581 94.3718 41.6144 94.7398 41.9515C95.3837 42.5654 96.2166 42.9408 97.1014 43.0159C97.5347 43.0117 97.9609 42.9049 98.3454 42.7042L98.9387 42.411L98.6835 41.7726C98.2924 41.007 97.6433 40.4056 96.8519 40.0755C96.6596 39.979 96.4723 39.8727 96.2908 39.7569C94.7941 38.7417 93.4001 37.5817 92.1287 36.2936C91.8288 35.9579 91.558 35.5972 91.3192 35.2153C91.0532 34.8097 90.7633 34.4203 90.4511 34.0493C89.9337 33.4582 89.375 32.9064 88.7794 32.3961C88.9438 32.4516 89.1151 32.4885 89.2899 32.5047L90.4569 32.6063L89.997 31.5222C88.7782 28.6846 86.4936 26.9622 83.2019 26.4196L82.4085 26.2857V27.0822C82.3924 27.387 82.466 27.6883 82.6201 27.9504C80.9138 26.8086 78.9754 26.0632 76.946 25.7685C76.4826 25.7119 76.0158 25.6819 75.549 25.6796ZM84.4516 28.9778C84.8564 29.3265 85.3278 29.5897 85.8371 29.749C86.0924 30.0087 86.3361 30.2812 86.5638 30.5652L86.7937 30.8469C86.0016 30.2695 85.1997 29.7056 84.3884 29.1556L83.8768 28.8058L83.2386 28.4029C83.694 28.4606 84.1182 28.6627 84.4516 28.9778ZM99.2837 72.1023C99.386 72.1427 99.4906 72.1773 99.5964 72.2038L99.9919 72.2685L100.254 71.9683L100.337 71.8795C100.739 71.562 100.932 71.0482 100.842 70.5461V70.4248L100.777 70.3094C100.631 70.046 100.418 69.8256 100.16 69.6701C99.9029 69.5146 99.6094 69.4293 99.3089 69.4228H99.2515C98.8737 69.4383 98.5148 69.5928 98.2431 69.8569L98.027 70.067V70.374C98.004 71.1129 98.4524 71.7825 99.1434 72.0445L99.2837 72.1023ZM65.3759 55.2704L65.3184 55.0395L65.139 54.8929C65.0815 54.8421 65.0183 54.8098 64.9608 54.7659L64.5906 54.5743C64.1824 54.4911 63.7742 54.4207 63.3776 54.3572C62.644 54.2487 61.9484 54.1598 61.3425 54.0767L61.0734 54.0386L60.602 54.3572C58.8493 55.4326 57.2332 56.7176 55.7891 58.1842C54.988 59.0594 54.341 60.065 53.8759 61.1581C53.6788 61.629 53.5212 62.1155 53.4045 62.6127L52.8675 64.2636C52.8675 64.2636 52.7721 64.6214 52.6698 65.0174C52.8468 65.2056 53.094 65.3118 53.3527 65.3106C53.4964 65.306 53.6379 65.2806 53.7735 65.2333C53.8266 65.2125 53.8823 65.1996 53.9391 65.1952H53.9713L54.6094 65.3545L54.7945 64.7172C55.5867 61.8727 58.0495 59.3398 62.1347 57.1845C62.2849 57.118 62.4492 57.0894 62.613 57.1013H63.634C64.0375 57.1129 64.4388 57.0355 64.809 56.8716L65.2172 56.68V56.1824C65.3736 55.9053 65.4287 55.5844 65.3759 55.2704ZM45.7493 83.245L45.7183 83.1238C45.6601 82.9336 45.541 82.7679 45.3794 82.6527C45.2179 82.5375 45.0229 82.479 44.8249 82.4865H44.6524L44.1868 82.5558L44.0718 83.0153C43.6036 84.9696 43.5019 86.9943 43.7717 88.9861C43.8671 89.5922 44.1672 91.041 44.9847 91.4866L46.3115 92.207L46.0184 90.7212C45.6035 88.2929 45.5111 85.8201 45.7436 83.3674L45.7493 83.245ZM104.255 70.9039C104.684 71.2306 105.204 71.4177 105.743 71.4385C106.063 71.4596 106.378 71.3593 106.628 71.1573C106.877 70.9554 107.041 70.6667 107.088 70.3487L107.122 70.1951L107.089 70.0416C106.847 69.0407 105.876 68.849 105.238 68.7151L104.99 68.6643L104.625 68.5881L104.352 68.8421C104.043 69.2057 103.908 69.6848 103.982 70.157V70.6927L104.255 70.9039ZM124.813 73.0466C125.242 72.9742 125.645 72.7901 125.981 72.5125C126.317 72.235 126.574 71.8738 126.727 71.465L126.836 71.1706L126.69 70.8901C126.563 70.6219 126.364 70.3945 126.116 70.2334C125.868 70.0723 125.58 69.9839 125.285 69.9781C125.013 69.9805 124.747 70.0543 124.513 70.192C124.279 70.3297 124.085 70.5266 123.951 70.7631C123.788 71.0656 123.71 71.4066 123.724 71.7501C123.739 72.0935 123.846 72.4266 124.034 72.7141L124.296 73.1678L124.813 73.0466ZM125.681 70.7954L125.585 70.7492C125.609 70.7629 125.633 70.7783 125.655 70.7954H125.681ZM110.772 73.8432L110.906 73.7092L110.951 73.5245C111.096 73.0431 111.001 72.5202 110.695 72.1219C110.523 71.9128 110.305 71.7464 110.058 71.6357C109.811 71.525 109.542 71.4729 109.272 71.4835C108.916 71.479 108.564 71.5597 108.245 71.719L107.963 71.8541V71.9429H107.76V72.5802C107.741 73.0085 107.903 73.4253 108.206 73.7289C108.576 74.1006 109.08 74.3096 109.604 74.3096C110.04 74.3142 110.459 74.1468 110.772 73.8432ZM110.134 72.5675L110.057 72.4717L110.089 72.5109L110.134 72.5675ZM109.227 72.2096C109.312 72.1999 109.397 72.1999 109.482 72.2096C109.392 72.1886 109.301 72.1781 109.208 72.1785L109.227 72.2096ZM114.085 75.202H114.193L114.295 75.1708C115.124 74.9087 115.482 74.1376 115.361 72.8619L115.329 72.5548L115.087 72.3701C114.692 72.0545 114.206 71.8756 113.702 71.8598C113.455 71.864 113.212 71.9236 112.992 72.034C112.771 72.1445 112.577 72.3031 112.426 72.4982L112.221 72.7591L112.284 73.0847V73.244C112.424 73.9205 112.687 75.195 114.085 75.202ZM123.453 76.4649L123.708 76.7143C124.049 77.0548 124.504 77.2546 124.984 77.2753C125.25 77.2708 125.512 77.2073 125.75 77.0893C125.989 76.9714 126.199 76.8019 126.364 76.5931C126.852 75.9581 127.03 75.1385 126.848 74.3604L126.81 74.156L126.663 74.0025C126.512 73.8282 126.327 73.6868 126.12 73.5871C125.912 73.4874 125.687 73.4316 125.457 73.423C124.181 73.423 123.587 75.1835 123.466 76.114L123.453 76.4649ZM124.806 74.5451C124.861 74.4735 124.921 74.4054 124.984 74.3407C124.917 74.4028 124.855 74.4712 124.8 74.5451H124.806ZM124.608 74.8579C124.612 74.8747 124.612 74.892 124.608 74.9087L124.57 74.9976L124.608 74.8579ZM77.4955 63.1345C78.0294 64.5511 78.9067 65.8117 80.048 66.8022L81.5416 67.9439L81.1714 66.1003C80.8011 64.3143 79.5824 62.5665 78.3314 62.0366L78.0244 61.9096L76.6459 61.3232L77.0161 62.114L77.4185 62.981L77.4955 63.1345Z" fill="#656565"/>
<path d="M142.645 94.771C142.242 93.6997 141.853 92.693 141.527 91.6459C140.949 89.5897 140.168 87.5962 139.198 85.6947C138.056 83.5035 137.12 81.2101 136.403 78.8442V78.7288C136.29 78.518 136.117 78.3468 135.905 78.2381C135.87 77.9312 135.857 77.6222 135.867 77.3134C135.876 76.7162 135.84 76.1191 135.758 75.5275C135.452 73.6654 134.481 69.3281 132.146 69.3281C131.955 69.3207 131.763 69.3421 131.578 69.3916L131.214 69.507L131.111 69.8695L131.074 69.9907L131.041 70.1062C129.733 74.6536 128.278 78.9146 124.966 81.1727C123.09 79.853 120.996 78.8768 118.781 78.2889C119.937 76.5676 120.607 74.4054 121.258 72.3066C121.589 71.2479 121.896 70.1501 122.324 69.1168C124.65 68.7214 126.925 68.0602 129.102 67.1462L129.485 67.0053L130.174 66.7317L129.867 66.0552C129.74 65.6397 129.74 65.1951 129.867 64.7796C129.867 64.6006 129.918 64.4217 129.936 64.2439C129.953 64.0318 129.953 63.8187 129.936 63.6066C129.817 62.3795 129.417 61.1965 128.769 60.1491C128.559 59.76 128.349 59.3525 128.169 58.9438C128.048 58.6754 127.932 58.4052 127.819 58.1334C127.027 56.2713 126.21 54.3445 124.628 53.3621C123.646 52.8657 122.631 52.4385 121.589 52.0864C120.3 51.6806 119.068 51.1082 117.926 50.3836C117.818 50.3005 117.696 50.23 117.595 50.1481L117.448 50.0269H117.263C117.134 50.0014 117.004 49.9883 116.873 49.9876C116.635 49.991 116.398 50.0299 116.171 50.1031C116.082 50.1031 116.012 50.1481 115.947 50.1539C115.674 49.9241 115.706 49.8029 115.731 49.7267C115.843 49.4519 115.989 49.1934 116.164 48.9544C116.416 48.6112 116.63 48.2415 116.803 47.8519C117.504 46.1098 117.638 43.7882 116.356 42.5322L115.986 42.1743L115.533 42.4167C115.375 42.5021 115.223 42.6002 115.08 42.71L114.716 42.9524C114.718 42.9355 114.718 42.9185 114.716 42.9016C115.494 40.9044 116.235 39.0111 117.83 38.0737H118.041C118.53 38.0656 119.006 37.9121 119.407 37.6327L119.592 37.5242L119.955 37.3279V36.9054C119.966 36.2959 119.819 35.6941 119.529 35.1587C119.594 35.1074 119.652 35.0472 119.701 34.9798C119.785 34.8505 119.836 34.7021 119.848 34.5482C119.86 34.3943 119.833 34.2398 119.77 34.0989L119.701 33.9211L119.554 33.7942C119.065 33.3642 118.442 33.1199 117.793 33.1038C117.383 33.1053 116.986 33.2421 116.662 33.4928C116.052 34.0184 115.565 34.6718 115.233 35.4069C115.118 35.617 115.01 35.8156 114.901 36.0003C114.646 36.4275 114.378 36.8615 114.11 37.276C112.693 39.5779 111.238 41.9573 110.727 44.2927C110.038 44.9767 109.281 45.5879 108.468 46.1167C107.945 46.4862 107.402 46.8694 106.892 47.2897C105.32 47.0752 103.736 46.9687 102.15 46.971C98.7975 47.0154 95.4571 47.3826 92.1746 48.0678L92.0849 47.8831C91.7767 47.3058 91.1938 46.9249 90.5407 46.8752C90.321 46.843 90.1061 46.7829 89.9015 46.6963C88.6383 45.9785 87.4969 45.0635 86.52 43.9856C86.4928 43.9433 86.4628 43.9028 86.4303 43.8644C85.8232 43.2272 85.1541 42.5253 84.4769 41.843C83.5901 40.9655 82.6292 40.1671 81.6048 39.4567C78.9821 37.6904 76.1549 35.8849 72.9321 34.9925C72.5296 34.8859 72.12 34.8092 71.7064 34.7627C71.4964 34.7162 71.283 34.6865 71.0683 34.6738H69.8426L68.7641 34.7824C67.6891 34.7641 66.6163 34.8883 65.5735 35.1518C65.1987 35.4519 64.9205 35.856 64.7756 36.3132L64.5135 37.1605L65.3942 37.2252H65.6943C66.1111 37.2209 66.5262 37.1717 66.9326 37.0786C66.821 37.3349 66.7555 37.6096 66.7406 37.8878L66.69 38.6913L67.4879 38.6405C68.1858 38.577 68.8791 38.4674 69.5621 38.3092C70.1048 38.1938 70.6659 38.0795 71.2522 38.0091C70.6979 39.248 70.4193 40.5934 70.4359 41.9515C70.4716 42.2632 70.5555 42.5703 70.6854 42.8566C70.7739 43.0598 70.8349 43.2745 70.8636 43.495V43.9545C70.8636 45.1597 70.8061 46.8117 71.6995 47.7237C72.095 48.1359 72.6423 48.3668 73.2126 48.3621H74.1635L73.9726 47.5263C73.3333 44.6621 74.068 40.6308 76.1686 39.1127C77.7176 39.9543 79.1743 40.9569 80.5148 42.1039L81.1908 42.6661C82.2057 43.4076 83.0826 44.3228 83.7813 45.3698C83.6133 45.3198 83.4391 45.2942 83.2639 45.2936C82.9833 45.2936 82.7074 45.371 82.4671 45.5164L82.2245 45.6573L82.1474 45.9309C81.5519 48.0574 81.5116 49.6828 82.0267 50.805C81.4403 50.9447 80.8459 51.0982 80.2262 51.2575C77.8209 51.8948 75.3316 52.5332 72.9252 52.5332C72.3209 52.5353 71.7174 52.4906 71.12 52.3993L69.792 52.1822L70.3727 53.3944C71.074 54.8605 72.4147 55.6075 74.3555 55.6075C75.7505 55.5444 77.1348 55.3307 78.4843 54.9702C79.0017 54.849 79.4995 54.7336 79.9652 54.6447C80.8942 54.4115 81.8048 54.1102 82.6901 53.7442C83.5133 53.4385 84.3556 53.1874 85.2116 52.9926C86.1572 52.8012 87.0902 52.5517 88.0055 52.2457L88.4148 52.1187C89.0426 51.9456 89.683 51.822 90.3292 51.7493C90.9629 51.6757 91.5918 51.5647 92.2125 51.4168C92.5678 51.3164 92.9139 51.1859 93.2473 51.0278C93.5186 50.8881 93.8084 50.7853 94.1073 50.7218C94.9552 50.6317 95.8072 50.5869 96.6598 50.5879C99.8838 50.6514 103.081 51.1732 106.157 52.1372C104.913 52.4316 103.745 52.9349 103.216 54.1529L102.992 54.6631L103.439 54.9956C103.792 55.2669 104.224 55.4158 104.67 55.4158C105.286 55.372 105.884 55.1889 106.419 54.8802C106.819 54.6654 107.249 54.5107 107.695 54.4207C108.642 54.2752 109.597 54.2025 110.555 54.2048C111.95 54.1977 113.34 54.3582 114.697 54.6828C110.625 56.4491 106.399 58.2731 103.757 61.6995L103.649 61.8392V62.0239C103.235 64.7022 104.62 65.762 105.736 66.6232C106.121 66.8968 106.477 67.212 106.796 67.5606L106.962 67.758L107.217 67.8042C110.037 68.2949 112.521 68.6008 114.92 68.894L117.933 69.2761C117.564 72.2681 116.595 75.154 115.086 77.7602C113.304 77.6288 111.518 77.5606 109.732 77.5558C108.346 77.5558 106.961 77.6009 105.436 77.7025C105.418 77.6187 105.39 77.5373 105.353 77.46L105.169 76.7396C105.117 76.5386 104.997 76.3616 104.831 76.2376C104.665 76.1136 104.462 76.05 104.255 76.0574C103.847 76.1033 103.458 76.2581 103.129 76.5058C102.801 76.7534 102.544 77.0849 102.386 77.4658V77.5939C102.372 77.751 102.389 77.9091 102.436 78.0592C101.194 78.252 99.9677 78.5221 98.7604 78.8696L98.3902 78.9724C96.623 76.421 95.7423 72.4532 95.0904 69.5186C94.7604 67.6691 93.8945 65.9584 92.6011 64.6006L92.3597 64.3778L92.04 64.4159C87.3294 64.9966 85.8497 69.7229 84.5413 73.8882C84.5413 73.9898 84.4838 74.0856 84.4516 74.1814C81.1333 72.2038 78.912 69.1676 76.5642 65.9594C75.7363 64.8215 74.8849 63.7011 74.0105 62.5988C73.162 61.5425 72.2407 60.5472 71.2534 59.6203L71.1959 59.5684L71.1384 59.5372C70.9315 59.4116 70.7186 59.2964 70.5003 59.192C69.3647 58.628 68.1167 58.3292 66.8498 58.3181C65.7641 58.3131 64.6887 58.5299 63.6891 58.9554C62.6896 59.3809 61.7867 60.0062 61.0354 60.7933C60.7117 61.1863 60.451 61.6276 60.2628 62.1012C60.0553 62.5658 59.8124 63.0135 59.5361 63.4404C59.4054 63.6111 59.2505 63.7617 59.0762 63.8872C58.8027 64.0857 58.567 64.332 58.3806 64.6145C57.9494 65.4457 57.5873 66.3127 57.2952 67.2039C57.1687 67.5676 57.0342 67.9312 56.8997 68.281L56.6893 68.8305C55.6683 71.4973 54.1368 75.5206 54.1368 78.3536C54.1368 79.112 54.0793 79.9467 54.0149 80.7583C53.8713 81.9851 53.8713 83.2246 54.0149 84.4514C54.0874 84.7712 54.2173 85.0759 54.3978 85.3507C54.4783 85.4684 54.5427 85.5977 54.5898 85.7328C54.6657 86.1669 54.7163 86.5686 54.768 86.9577C54.8531 87.8401 55.0418 88.7092 55.3303 89.5471C55.7959 90.7212 56.4099 91.8318 57.1549 92.8511C57.4044 93.2206 57.6401 93.5657 57.8506 93.9098V94.8922L58.0932 95.1035C58.5531 95.556 58.9509 96.0686 59.274 96.6273L59.3567 96.7543C61.7885 102.356 64.6227 110.45 61.4378 116.528C60.7792 116.999 60.207 117.582 59.7465 118.25C59.4029 118.76 58.9706 119.203 58.4703 119.558C58.3307 119.617 58.1849 119.659 58.0357 119.685C57.7517 119.742 57.4769 119.835 57.2193 119.966C53.6099 121.849 49.6009 122.83 45.5331 122.824C43.3658 122.862 41.2059 122.561 39.1312 121.931C37.6545 121.413 36.2154 120.792 34.8242 120.074C33.9308 119.647 33.0052 119.2 32.0728 118.799C31.8819 118.722 31.7094 118.633 31.5243 118.556C30.9816 118.244 30.4516 117.919 29.9411 117.619C29.6933 117.475 29.4105 117.405 29.1248 117.414C27.8374 116.746 26.5709 116.037 25.3271 115.29C23.2336 114.05 21.3037 112.55 19.5828 110.826C18.8903 110.182 18.1795 109.559 17.4512 108.957C16.2907 108.051 15.222 107.032 14.2606 105.915C13.3685 104.757 12.5622 103.536 11.8483 102.26C11.4459 101.565 11.0952 100.907 10.7952 100.346C9.71076 98.2648 8.77219 96.1104 7.98627 93.8982C7.46004 92.1691 7.18092 90.3737 7.15729 88.5658C7.1182 87.9863 7.08025 87.4056 7.02967 86.8111C6.98095 86.3537 6.90182 85.9002 6.79281 85.4534C6.67098 84.9977 6.60685 84.5284 6.60195 84.0566C6.66237 83.5107 6.78426 82.9736 6.96528 82.4553C7.08715 82.0478 7.21478 81.6195 7.30331 81.1797L7.50107 80.1591C7.8345 78.469 8.14034 76.869 8.52896 75.3497C8.79916 74.2426 9.13374 73.1528 9.53156 72.0838C12.7797 65.9802 17.6949 60.8775 21.657 56.7758C22.7564 55.6294 23.88 54.5066 25.027 53.4082C28.5568 50.0084 32.1371 46.9087 35.921 43.6174L36.1326 43.4384C37.776 42.083 39.5071 40.8384 41.3146 39.713C43.2935 38.4912 45.1772 37.1204 46.9496 35.6124L48.9663 33.8196L48.6536 33.8842L46.331 34.3945C45.7116 34.5368 45.1204 34.7826 44.5822 35.1218C45.4057 33.9057 45.9925 32.5441 46.3115 31.1089L46.3632 30.8665L46.254 30.6494C45.2077 28.4814 43.4589 26.8224 40.7914 25.5468C41.9274 24.2203 43.0254 22.8361 44.0913 21.497C45.4756 19.7618 46.899 17.9817 48.3983 16.3043C48.1472 16.7675 47.9049 17.2355 47.6717 17.7081C48.0028 17.3386 48.3098 16.9681 48.68 16.6044L48.7754 16.5086C48.1017 17.8948 47.243 19.1823 46.223 20.3356C45.9735 20.6358 45.7251 20.974 45.4825 21.2545L44.7926 22.1285L45.6607 22.3259C45.2008 22.8685 44.8582 23.5011 44.6524 24.1822L44.4604 24.8195L45.0421 25.0688C47.0082 25.9174 48.2327 27.4736 49.6044 29.2653C49.7389 29.4315 49.847 29.6104 49.962 29.7824C50.277 30.4405 50.8818 30.9115 51.5958 31.0581H51.7303C52.6364 31.0581 53.1469 30.2673 53.524 29.6936C53.616 29.54 53.7183 29.3934 53.8298 29.2526C54.6042 28.4846 55.441 27.783 56.3317 27.1549C58.2461 25.6876 60.2754 24.1695 60.7997 22.6133C61.1561 21.5535 59.7339 19.1234 59.2544 18.5312C57.6858 16.7071 55.9463 15.0385 54.0598 13.5486C53.5619 13.1284 53.0767 12.7266 52.6237 12.3249L52.5214 12.2348C51.2451 11.0931 49.5918 9.6835 47.8694 9.6835C47.2779 9.7096 46.7039 9.89284 46.206 10.2145C45.708 10.5362 45.3041 10.9848 45.0352 11.5145C44.1798 13.0326 43.4394 14.6268 42.7185 16.1703C40.4339 21.0306 38.2953 25.6172 33.5468 27.6005C33.3606 27.6841 33.2059 27.8251 33.105 28.003C33.0041 28.1809 32.9623 28.3865 32.9857 28.5899C32.1187 28.9917 31.2196 29.3218 30.2987 29.5781C28.8445 29.989 27.3424 30.2037 25.8318 30.2165H25.1224C23.3104 30.1011 21.9766 29.5781 21.1592 28.5957C20.8892 28.2788 20.6736 27.9191 20.521 27.5313L21.5811 26.797C24.4268 24.8195 27.6565 22.581 29.5398 19.1938C29.9123 18.5243 30.2239 17.8212 30.4711 17.0951C30.6597 16.4312 30.7632 15.7444 30.777 15.054C30.7931 14.6141 30.8402 14.1743 30.9184 13.7402C31.3645 11.6103 32.0153 10.188 32.9661 9.27598L33.0937 9.14899L33.2605 9.02084C33.7888 8.61149 34.4017 8.32592 35.0541 8.18502C37.7288 7.58909 40.4474 7.21303 43.183 7.06059C43.8211 7.06059 44.5868 7.01672 45.302 7.01672C46.6653 6.96197 48.0282 7.13439 49.3354 7.52699C49.6079 7.61934 49.8746 7.72786 50.1333 7.85254C50.626 8.80797 51.3756 9.60551 52.2972 10.1545C52.6168 10.3739 52.9226 10.6094 53.217 10.8622C53.248 10.9291 53.2756 10.9973 53.2986 11.0665C53.3975 11.3436 53.5493 11.5999 53.7459 11.8192C54.269 12.3445 54.8267 12.8317 55.4176 13.2796C55.8258 13.6052 56.2478 13.918 56.6433 14.2874C57.2814 14.83 57.862 15.3911 58.4622 15.9395C60.1195 17.5658 61.9227 19.0351 63.8489 20.3287L64.0972 20.488C65.4126 21.3169 67.8501 22.8661 69.7081 22.8661C71.1304 22.8661 72.0375 21.9541 72.1905 20.3725L72.2353 19.8946L71.8076 19.6776C71.5493 19.5504 71.2745 19.4603 70.9912 19.4097C73.8432 18.2446 76.9044 17.6845 79.9824 17.7646C85.2369 17.8166 90.4269 18.8995 95.2628 20.9532C98.8351 22.4213 102.166 24.4234 105.142 26.8917C104.656 27.4216 103.916 28.2193 104.337 29.3091L104.491 29.7178L104.924 29.7617H105.052C105.792 29.7617 106.24 29.1244 106.59 28.6326C106.738 28.3971 106.916 28.1824 107.119 27.9954C107.328 27.9376 107.542 27.9053 107.759 27.8995C107.953 27.8822 108.147 27.9342 108.307 28.0462C108.307 28.0462 108.397 28.1351 108.39 28.3336C108.384 28.5299 108.237 28.5876 107.867 28.83C107.376 29.1556 106.45 29.7617 106.865 30.9808C106.986 31.6365 107.55 32.1191 108.217 32.1352C109.13 32.1352 110.049 31.2867 110.988 30.3424L111.287 30.0491L111.849 29.5008C112.908 28.4548 113.764 27.6248 115.43 27.6248H115.991C116.246 27.7899 116.489 27.9711 116.719 28.1674C117.289 28.6869 117.97 29.0713 118.71 29.2895C121.327 31.9563 121.901 38.1499 119.808 41.8303L119.661 41.8995C119.354 42.0195 119.088 42.2255 118.895 42.4929L118.761 42.71L118.793 42.9593C118.827 43.3368 118.827 43.7166 118.793 44.0942C118.721 44.5498 118.734 45.0147 118.831 45.4656V45.5164L118.992 45.9632H119.591C121.122 45.9632 121.913 44.5733 122.553 43.45C122.679 43.2272 122.808 42.9974 122.941 42.8127C123.364 42.1431 123.746 41.4493 124.084 40.7324C124.438 40.0051 124.708 39.2385 124.889 38.4489C125.731 34.316 124.62 29.2202 122.188 26.0686L122.105 25.9531L121.978 25.8839L121.537 25.6414L121.403 25.5652C120.537 25.1167 119.718 24.5823 118.958 23.9698L118.653 23.7089L118.27 23.8428C118.126 23.889 117.979 23.9236 117.829 23.9444C117.827 23.5181 117.802 23.0922 117.752 22.6687C117.693 22.2456 117.693 21.8162 117.752 21.3931C118.014 21.5593 118.302 21.7509 118.595 21.9484C119.454 22.5452 120.352 23.0843 121.282 23.5623C122.126 24.0058 123.068 24.2252 124.02 24.1995C125.245 24.0598 125.935 23.1605 126.503 22.3697C126.732 22.0419 126.988 21.7348 127.269 21.4508L127.645 21.0998L127.422 20.6346C127.073 19.9481 126.645 19.3056 126.146 18.7205C125.878 18.3947 125.628 18.054 125.398 17.7C125.247 17.4601 125.114 17.2084 125.003 16.9473C124.769 16.3903 124.568 15.8198 124.403 15.2387C124.194 14.5263 124.001 13.8096 123.822 13.0891C122.731 8.85922 121.492 4.06941 116.604 4.06941C115.948 4.07394 115.295 4.15334 114.657 4.30607C112.047 4.89831 110.151 6.60227 108.314 8.25429C107.829 8.69298 107.325 9.14668 106.813 9.56805L105.665 10.614C104.277 11.8658 102.782 12.9927 101.197 13.9815C100.495 14.3833 99.8631 14.6707 99.2065 14.9836C98.5489 15.2953 97.9303 15.57 97.2151 15.9718C96.5943 16.3595 95.8841 16.5795 95.1536 16.6102C94.4632 16.5607 93.7847 16.4034 93.1427 16.1438C92.6253 15.9718 92.0389 15.7744 91.3306 15.5954C88.9515 15.0313 86.5343 14.6431 84.0986 14.4341C82.4755 14.2834 80.8466 14.2048 79.2167 14.1985C73.914 14.1985 69.8541 15.2375 66.8222 17.3883C66.5124 17.1839 66.1932 16.9944 65.8656 16.8203C61.1173 13.6496 57.0039 9.61225 53.739 4.91793L53.593 4.71359L53.3504 4.64433C52.6697 4.44917 51.9657 4.34819 51.2578 4.34417C50.8478 4.34646 50.4382 4.3719 50.031 4.42036C49.7895 4.42036 49.54 4.46539 49.2721 4.47809H49.2204C48.9765 4.46373 48.7348 4.42309 48.4995 4.35687C48.1675 4.26904 47.8279 4.21337 47.4854 4.19063H47.0059C44.4351 4.29684 41.8745 4.59469 39.3485 5.08417C38.0263 5.30005 36.7949 5.50439 35.729 5.62676C35.4723 5.65344 35.2144 5.66578 34.9564 5.66371H34.1458C33.7606 5.64985 33.3754 5.69834 33.0041 5.80455C30.7827 6.51915 29.3467 9.28752 28.8488 10.8114C28.5553 11.795 28.3626 12.8062 28.2739 13.8291C28.198 14.4664 28.121 15.1487 27.975 15.8702C27.1644 19.7861 23.9347 21.9807 20.4877 24.3404L19.9013 24.7364C19.547 24.7867 19.2026 24.8918 18.8803 25.0481C18.6423 25.1658 18.3917 25.2559 18.133 25.3159L17.8271 25.3736L17.6673 25.6414C16.3911 27.746 17.6673 29.2318 18.5929 30.317C18.8792 30.6287 19.1379 30.9669 19.3655 31.3248L19.4483 31.4841L19.6012 31.5799C21.4324 32.7131 23.5515 33.2889 25.7019 33.2377C29.1706 33.1515 32.5541 32.1411 35.506 30.31C36.4143 29.7697 37.2686 29.144 38.0584 28.4421C38.3114 28.6499 38.5908 28.8254 38.8886 28.9651C39.2335 29.1233 39.5865 29.2618 39.9475 29.3795C40.4005 29.5054 40.8317 29.7016 41.2238 29.9602C41.3721 30.0745 41.4871 30.2258 41.556 30.3989C41.694 30.7453 41.7596 31.1181 41.7469 31.491C41.7469 34.1243 38.9461 37.5057 37.7837 38.8068C37.5449 38.8324 37.3209 38.9353 37.1455 39.1L36.8006 39.0169L36.5201 39.3748C35.5807 40.4738 34.508 41.4528 33.3295 42.2897C32.2644 43.0648 31.2575 43.9176 30.3171 44.8411C30.0899 45.0882 29.8966 45.3646 29.7422 45.663C29.6346 45.8739 29.4992 46.0692 29.3398 46.2437C28.5809 46.971 27.7186 47.6475 26.7873 48.3552C25.8355 49.0699 24.9236 49.8365 24.0554 50.6514C20.3164 54.1783 17.1315 57.4511 14.3226 60.6593L13.2568 61.8519C11.9688 63.1705 10.8205 64.6198 9.8305 66.1764C9.66838 66.4801 9.54766 66.8045 9.47292 67.1393C9.43603 67.3374 9.37582 67.5303 9.29356 67.7142C9.04176 68.1159 8.76696 68.5038 8.47032 68.8744C8.05296 69.372 7.68733 69.9111 7.37919 70.4825C6.00062 73.2509 5.19694 76.6184 4.42429 79.8774C4.29667 80.4073 4.17479 80.9234 4.04717 81.4475C3.78164 82.829 3.74744 84.2453 3.94599 85.6381C3.94599 85.9695 4.00923 86.3077 4.02877 86.6391C4.06671 87.1297 4.06671 87.6146 4.06671 88.0937C4.05177 88.7713 4.08971 89.449 4.18169 90.1209C4.31736 90.7974 4.51512 91.46 4.77497 92.0984C4.92214 92.5071 5.07506 92.9216 5.19694 93.3302L5.46483 94.2677C6.6008 98.2343 7.49417 101.373 9.40279 104.473L9.67068 104.913C10.2007 105.833 10.7975 106.714 11.4574 107.547L12.1979 108.434C16.4865 113.537 20.9223 118.838 27.3622 121.829C33.1892 124.131 39.9797 126.568 47.3129 126.568C49.8793 126.573 52.4365 126.26 54.9267 125.636C57.4967 126.784 60.2599 127.434 63.0705 127.55C63.5327 127.659 64.0053 127.724 64.4801 127.742L64.3973 127.563C64.9119 127.527 65.4235 127.457 65.9288 127.353C66.2657 127.457 66.6187 127.492 66.9694 127.455C67.2189 127.404 67.4741 127.353 67.665 127.333C67.7437 127.294 67.8171 127.245 67.8834 127.187C68.1996 127.27 68.5054 127.39 68.7952 127.545C69.1528 127.741 69.5345 127.893 69.9312 127.997C72.4469 128.543 75.0143 128.819 77.5886 128.819C79.1337 128.832 80.6768 128.702 82.198 128.43C83.326 128.169 84.4274 127.8 85.4841 127.326C86.6814 126.727 87.9802 126.36 89.3128 126.242C89.9878 126.238 90.6508 126.422 91.2283 126.772L91.3939 126.874H92.1665C96.9277 126.874 104.006 125.975 109.08 123.972H109.149C109.54 123.762 109.921 123.499 110.298 123.251C110.56 123.072 110.827 122.893 111.089 122.734C111.122 123.901 111.875 125.337 112.717 126.747L112.768 126.836C114.179 129.202 116.859 131.301 118.717 132.354C119.951 133.141 121.318 133.694 122.75 133.986C123.959 134.305 125.202 134.478 126.453 134.502C126.825 134.502 127.198 134.479 127.568 134.433C130.039 134.068 132.961 132.436 134.869 131.026C140.365 126.957 143.001 119.113 144.251 113.25C144.523 111.761 144.673 110.253 144.699 108.74C144.699 108.001 144.768 107.234 144.833 106.476C145.235 101.603 143.96 98.1327 142.645 94.771ZM71.5132 43.9683C71.5138 43.9491 71.5138 43.9298 71.5132 43.9106V43.9683ZM71.68 46.3788C71.6761 46.3936 71.6761 46.4091 71.68 46.4238V46.4931V46.3788ZM71.7432 46.5704C71.7407 46.5915 71.7407 46.6129 71.7432 46.6339V46.672V46.5704ZM71.9536 46.9918L71.9157 46.9399C71.8921 46.9008 71.871 46.8603 71.8524 46.8187L71.8904 46.8891C71.8892 46.906 71.8892 46.923 71.8904 46.9399L71.9536 47.0299V46.9918ZM72.1583 54.3457L71.9927 54.2441L72.133 54.3272C72.1646 54.3379 72.1947 54.3526 72.2226 54.3711H72.2663L72.1583 54.3457ZM76.3446 52.7895H76.448L76.709 52.7444L76.3446 52.7895ZM80.1813 51.8959H80.2572L80.7424 51.7689L80.1813 51.8959ZM97.6164 49.9126H97.567H97.9234H97.6164ZM101.675 50.3524L101.931 50.4044L102.142 50.4425L101.676 50.3524H101.675ZM103.635 50.7611L103.425 50.7103L103.08 50.6399L102.685 50.5568C102.933 50.6076 103.182 50.6526 103.425 50.7103L103.738 50.7865L103.635 50.7611ZM104.222 50.9019L104.401 50.9458L105.084 51.1247L104.222 50.9019ZM106.373 54.1032H106.316L106.431 54.0455L106.373 54.1032ZM110.624 48.7004C110.105 48.5994 109.591 48.4718 109.085 48.3183C109.456 48.0377 109.851 47.7757 110.221 47.5021C110.368 47.3936 110.521 47.2908 110.649 47.1765C110.726 47.2723 110.789 47.3809 110.859 47.4767C110.931 47.5714 110.956 47.6037 110.994 47.6729C111.278 48.2236 111.644 48.727 112.079 49.1668C111.62 48.9567 111.137 48.8002 110.642 48.7004H110.624ZM51.2957 12.1448L51.6211 12.4195L51.29 12.1379L51.2957 12.1448ZM51.1428 12.0178L51.2256 12.0871L51.2773 12.1321L51.1428 12.0178L50.8554 11.7938C50.8416 11.7756 50.8244 11.7603 50.8048 11.7488L51.1428 12.0178ZM50.1414 11.2836L50.2494 11.3528L50.1092 11.2582L50.1414 11.2836ZM50.0379 11.2201C49.9723 11.1759 49.9044 11.1355 49.8344 11.0989L50.0379 11.2201ZM49.4975 10.9014L49.3112 10.8114C49.3788 10.8235 49.4438 10.8474 49.5032 10.8818L49.4975 10.9014ZM100.191 17.2798L100.892 16.9542C101.639 16.6102 102.411 16.2523 103.196 15.7928C104.96 14.7017 106.651 13.4958 108.258 12.1829C108.874 11.6865 109.464 11.1589 110.025 10.6013C111.838 8.8927 114.09 6.77429 116.356 6.77429C117.088 6.78583 117.802 7.00748 118.411 7.41154C119.637 8.17694 120.377 10.9707 120.92 13.0118L121.098 13.6502C121.394 14.6638 121.749 15.6589 122.164 16.6287C122.586 17.5984 122.942 18.5958 123.23 19.6141L123.287 19.8565L123.492 20.0089C123.647 20.1255 123.791 20.2582 123.918 20.4049C123.937 20.69 123.859 20.9728 123.695 21.2084C123.663 21.2465 123.575 21.3296 123.3 21.3296C122.662 21.3296 121.571 20.8447 120.32 19.9962C119.584 19.4491 118.967 18.757 118.507 17.962C118.525 17.9078 118.547 17.8547 118.571 17.8027C118.615 17.7208 118.651 17.6353 118.679 17.5476C118.853 17.5187 119.024 17.476 119.19 17.4206C119.641 17.2765 120.05 17.0245 120.383 16.6864C120.721 16.3354 120.943 15.8898 121.021 15.4107C121.149 14.5749 120.753 13.529 119.342 12.9483C119.259 12.6383 119.17 12.33 119.075 12.0236L118.436 12.4634C117.261 13.3988 116.361 14.638 115.833 16.048L115.948 15.8575L116.107 15.9337C115.087 18.5976 114.673 21.4569 114.895 24.3023C113.738 24.5594 112.626 24.9895 111.595 25.5779C111.432 25.2722 111.231 24.9889 110.995 24.7352C110.777 24.5059 110.511 24.3274 110.217 24.2122C110.03 24.1428 109.835 24.1019 109.636 24.091C109.142 23.9109 108.623 23.8059 108.098 23.7793C107.852 23.6086 107.613 23.4276 107.383 23.2367C107.106 23.0066 106.817 22.7938 106.514 22.5995L106.189 22.3882C103.785 20.7762 101.264 19.3476 98.6466 18.1144C99.1399 17.7912 99.6561 17.5049 100.19 17.2544V17.2798H100.191ZM28.3705 30.7187L27.9623 30.788C28.1854 30.788 28.4027 30.7187 28.6005 30.6737L28.3705 30.7187ZM48.0085 123.404C47.7406 123.404 47.4785 123.461 47.2106 123.481C47.5992 123.481 47.9959 123.411 48.3845 123.372L48.0085 123.404ZM50.1471 123.11C49.7182 123.188 49.2848 123.257 48.8709 123.315C49.1123 123.284 49.3423 123.239 49.578 123.199L50.1713 123.11H50.2989H50.1471ZM50.5553 123.028C50.9117 122.958 51.2693 122.881 51.62 122.792C51.2888 122.868 50.9312 122.945 50.5737 123.015L50.5541 123.028H50.5553ZM55.935 121.331H55.9983L56.165 121.255L55.935 121.331ZM129.476 80.719C130.46 79.4008 131.296 77.9785 131.971 76.4776C131.973 77.5431 131.92 78.6076 131.813 79.6673C131.813 79.8324 131.781 79.9987 131.761 80.158C131.615 81.5255 131.298 82.869 130.817 84.157C130.693 84.4983 130.542 84.8289 130.364 85.1452C129.969 84.8404 129.59 84.5151 129.228 84.1708L128.59 83.6213C128.279 83.3499 127.953 83.0966 127.613 82.8628C128.292 82.191 128.921 81.4702 129.496 80.7063L129.476 80.719ZM87.8595 73.5453L87.9055 73.3791C88.3826 71.682 88.4459 71.465 89.6209 70.4837C89.8739 70.2759 90.09 70.0288 90.2591 69.7495C90.305 69.9088 90.3487 70.075 90.3867 70.2413C90.3899 70.2241 90.3899 70.2065 90.3867 70.1893C91.1149 73.6323 92.2731 76.9693 93.8337 80.121C93.936 80.3127 94.0245 80.4974 94.1269 80.6821C93.4271 81.3502 92.571 81.8306 91.6376 82.079L91.4215 82.1494L91.2869 82.3341C90.6387 83.067 89.8453 83.656 88.9575 84.0635C88.5172 84.3117 88.0641 84.5599 87.6353 84.8485C87.0289 83.3325 86.7677 81.6995 86.8707 80.0691C86.9306 77.8618 87.2627 75.6705 87.8595 73.5453ZM69.6012 59.5949C69.4149 59.5187 69.2298 59.461 69.0447 59.3975L68.9297 59.3594C69.1574 59.4264 69.3827 59.5049 69.6012 59.5949ZM63.6902 59.6596L63.8305 59.5949L63.6845 59.6654L63.6902 59.6596ZM63.4488 59.7796L63.2188 59.8882L63.3775 59.812L63.4488 59.7796ZM63.2188 59.8882L63.1671 59.9205L63.1027 59.9528L63.2177 59.8882H63.2188ZM62.0001 60.7182H61.9667L61.8977 60.7759L62.0001 60.7182ZM61.9483 93.1328V92.7507L61.4689 91.9276C61.163 91.4115 60.8307 90.9325 60.5249 90.4672L60.3203 90.1613C58.985 87.1902 58.2436 83.9849 58.138 80.7271C58.2012 79.9363 58.253 79.1259 58.2461 78.3028V77.9334C58.3105 77.385 58.3932 76.8366 58.5013 76.301V76.2051C59.2027 72.8688 60.0202 70.1385 61.3297 68.0201C62.6937 65.7482 64.8796 64.0936 67.4304 63.4023L67.558 63.4866C67.7857 63.6932 68.08 63.8098 68.3882 63.8179C68.4917 63.8156 68.5951 63.8006 68.694 63.7729C70.1554 64.8442 71.2787 66.42 72.4653 68.079C73.3402 69.3757 74.3225 70.5961 75.4018 71.727C75.5041 71.8286 75.6248 71.9314 75.7398 72.0272C75.8548 72.123 76.148 72.3712 76.3779 72.5305C76.6079 72.6898 76.9137 72.9519 77.1437 73.1689C79.1104 75.1278 81.4505 76.6681 84.0239 77.6978V81.2628C83.7346 80.6982 83.4789 80.1168 83.2581 79.5219L83.1949 79.3372L83.0408 79.2159C82.314 78.6389 81.4149 78.3241 80.4883 78.3224C79.9079 78.3101 79.3341 78.448 78.8221 78.723C78.3102 78.998 77.8775 79.4008 77.5656 79.8925C76.9217 78.992 76.3354 78.0523 75.8099 77.0791C75.5225 76.5688 75.235 76.0585 74.9292 75.561L74.8211 75.382L74.636 75.2931C74.0808 75.0047 73.4673 74.8475 72.8424 74.8337C71.3166 74.8337 70.3589 75.8854 69.5172 76.8112C69.2689 77.0848 69.0263 77.3538 68.7837 77.5766C68.3734 77.0276 68.0543 76.4155 67.8386 75.7641C67.2775 74.3673 66.5623 72.6264 64.5457 72.6264C64.3531 72.6259 64.1609 72.641 63.9708 72.6714L63.4867 72.7406L63.3832 73.2255C63.1544 73.9794 63.5028 74.7875 64.2076 75.1396C64.8546 77.2324 65.8775 79.1887 67.2258 80.9118L67.3798 81.1035L67.6155 81.1612C67.9892 81.2524 68.3732 81.2997 68.7584 81.3009C70.7486 81.3009 71.5914 79.8347 72.2675 78.648L72.44 78.3547C73.3529 78.5648 74.1255 79.9548 74.8775 81.3009C75.849 83.0556 76.8574 84.8727 78.5993 84.8797C79.933 84.8797 80.3929 83.9296 80.6412 83.0233L80.9793 83.4886C81.8738 84.7642 82.8948 86.1103 84.5217 86.8445C79.6398 90.0839 72.7918 93.5669 65.9116 93.5669C64.5778 93.5669 63.2499 93.4214 61.9483 93.1328ZM84.7712 126.805L84.9437 126.728H85.0069L84.7712 126.805ZM86.8523 125.988L86.7235 126.033L87.011 125.938L86.8523 125.988ZM98.55 125.663L99.0927 125.587L99.5135 125.529L98.55 125.663ZM104.262 124.63L104.479 124.579L104.862 124.49L104.262 124.63ZM106.304 124.087H106.247H106.324L106.464 124.043L106.572 124.011L106.304 124.087ZM112.26 117.888L111.8 118.092C111.245 118.354 110.663 118.64 110.089 118.921L109.61 119.158C108.552 119.697 107.465 120.18 106.356 120.605C105.058 121.09 103.727 121.478 102.373 121.767C101.557 121.932 100.72 122.129 99.9412 122.315L99.233 122.474C98.7041 122.601 95.2824 123.265 94.765 123.374L92.8506 123.412L93.859 122.525L95.2628 121.301L94.4005 121.217L94.6949 121.186L93.9234 121.122C92.9564 121.031 91.9823 121.048 91.019 121.173C90.6109 121.211 90.228 121.256 89.8693 121.32C89.4692 121.395 89.0731 121.491 88.6827 121.606C88.0067 121.805 87.3042 122.066 86.443 122.378C85.6496 122.621 84.8712 122.905 84.1066 123.227C83.0604 123.591 81.7071 124.024 80.3354 124.349C78.9281 124.749 77.461 124.895 76.0008 124.783C76.0583 124.745 76.2767 124.637 76.5699 124.483H76.6205C77.2123 124.183 77.8103 123.896 78.4141 123.622L79.5501 123.093C80.417 122.687 81.2518 122.213 82.0451 121.677C82.2038 121.598 82.3567 121.51 82.505 121.416H82.4602L81.8795 120.14C80.702 120.421 79.5392 120.762 78.3957 121.161L77.1885 121.55C75.5489 122.107 73.8542 122.49 72.1341 122.691L71.189 122.787C70.4175 122.856 69.5368 122.927 68.6365 122.965H67.5258C67.0222 122.965 66.575 122.965 66.1864 122.914C65.9242 122.914 65.6816 122.863 65.477 122.825C64.8091 122.647 64.1661 122.385 63.5626 122.047C63.1866 121.856 62.8038 121.671 62.414 121.505L62.4841 121.428C62.982 120.905 63.4419 120.382 63.8696 119.847C64.477 119.082 65.0211 118.269 65.4965 117.415C67.1708 114.399 67.8207 110.918 67.3476 107.498C66.98 105.063 66.2527 102.697 65.1895 100.479C64.7313 99.0892 64.2223 97.7172 63.6638 96.3653C64.2502 96.3653 64.8446 96.3964 65.4252 96.3964C68.6158 96.3964 73.116 96.1286 76.5745 94.8472C77.3403 94.5436 78.0911 94.2007 78.8212 93.8197C79.3964 93.5164 79.984 93.2375 80.5826 92.9839L81.1127 92.7738C81.6162 92.5695 82.1405 92.3651 82.6384 92.1042C83.1362 91.8422 83.595 91.6193 84.1055 91.3769C84.7684 91.0628 85.4239 90.7333 86.0716 90.3887C86.8511 89.9255 87.6053 89.4207 88.3309 88.8764C88.8989 88.4608 89.4922 88.0279 90.0785 87.6711C90.8075 87.2186 91.4905 86.7845 92.1596 86.3504C93.5324 85.4708 94.8271 84.6419 96.3091 83.8499L96.723 83.6329C97.2963 83.3493 97.887 83.1025 98.4914 82.894C101.918 81.7557 105.509 81.197 109.118 81.2408C111.97 81.2346 114.814 81.5581 117.594 82.2048C118.096 82.3283 118.59 82.483 119.073 82.6701L119.368 82.8744L119.641 83.066L120.637 83.761L120.892 83.6017C121.595 83.9907 122.252 84.4179 122.878 84.845L123.299 85.1383C124.093 85.7617 124.851 86.4336 125.564 87.147C126.451 87.5742 127.32 88.3407 128.756 90.0378C129.005 90.3437 129.298 90.675 129.604 90.9879C129.796 91.198 130.032 91.4531 130.242 91.6955C130.454 91.9172 130.634 92.1654 130.779 92.4355C131.372 93.9594 131.277 96.7347 131.245 97.6467C131.11 101.703 130.307 105.364 129.189 107.061L129.049 107.137C128.828 107.264 128.615 107.406 128.411 107.559C128.243 107.692 128.089 107.84 127.951 108.006L127.812 108.172C127.528 108.607 127.334 109.095 127.242 109.607C127.239 109.658 127.239 109.708 127.242 109.759C127.019 109.958 126.547 110.308 126.221 110.55H126.184C125.871 110.781 125.545 111.016 125.278 111.239C122.725 113.318 119.368 114.753 115.818 116.273C114.632 116.89 113.438 117.407 112.27 117.943L112.259 117.885L112.26 117.888ZM139.703 110.565C137.844 118.723 134.884 124.081 130.914 126.48C128.75 127.71 126.316 128.379 123.83 128.425H123.58C122.512 128.43 121.455 128.199 120.485 127.749C117.415 126.212 115.679 124.159 115.181 121.46C115.163 121.189 115.042 120.936 114.843 120.752C116.388 119.961 117.926 119.024 119.426 118.099C120.185 117.639 120.933 117.18 121.666 116.753C124.972 114.839 128.387 112.664 130.71 109.443C131.776 107.886 132.663 106.213 133.352 104.456C134.456 101.725 134.864 96.8709 134.303 92.9285C134.14 91.589 133.783 90.2807 133.243 89.0449C133.87 88.2022 134.381 87.2786 134.762 86.302C134.814 86.175 134.871 86.0526 134.916 85.9256C137.143 89.3381 139.274 93.433 139.83 98.4341C139.899 99.0332 139.951 99.6139 140.003 100.182C140.43 104.621 140.328 108.033 139.74 110.623L139.703 110.565Z" fill="#656565"/>
</svg>
