<svg width="1500" height="420" viewBox="0 0 1500 420" fill="none" xmlns="http://www.w3.org/2000/svg">
<g clip-path="url(#clip0_607_110)">
<path d="M1121.98 69.4964H1113.91V349.275H1121.98V69.4964Z" fill="#EBB700"/>
<path d="M1246.37 154.403L1255.7 156.568C1252.87 166.036 1246.88 167.799 1240.22 167.799C1230.54 167.799 1224.6 160.95 1224.6 148.662C1224.6 136.928 1231 130.432 1240.88 130.432C1248.99 130.432 1253.78 133.906 1255.24 141.662L1246.17 143.273C1245.31 139.446 1243.3 138.187 1240.68 138.187C1236.79 138.187 1234.43 141.612 1234.43 148.662C1234.43 156.568 1236.64 159.842 1240.52 159.842C1242.94 159.842 1245.31 158.532 1246.37 154.403ZM1274.4 167.799C1263.56 167.799 1258.11 159.993 1258.11 149.115C1258.11 141.058 1261.64 130.432 1274.4 130.432C1287.15 130.432 1290.68 141.058 1290.68 149.115C1290.68 159.993 1285.23 167.799 1274.4 167.799ZM1274.4 160.094C1279.08 160.094 1280.85 156.014 1280.85 149.115C1280.85 142.115 1278.98 137.935 1274.4 137.935C1269.81 137.935 1267.94 142.115 1267.94 149.115C1267.94 156.014 1269.71 160.094 1274.4 160.094ZM1333.67 167.194H1324.6V144.331H1324.5L1318.5 167.194H1310.58L1304.59 144.331H1304.49V167.194H1295.41V131.036H1308.17L1314.42 154.705H1314.52L1321.07 131.036H1333.67V167.194ZM1349.74 167.194H1339.91V131.036H1354.12C1364 131.036 1368.74 135.014 1368.74 142.921C1368.74 151.23 1362.94 155.007 1354.38 155.007H1349.74V167.194ZM1349.74 147.302H1354.68C1357 147.302 1358.91 146.094 1358.91 142.921C1358.91 140.453 1357.15 139.043 1354.58 139.043H1349.74V147.302ZM1393.84 153.849V131.036H1403.67V151.935C1403.67 162.058 1399.03 167.799 1387.89 167.799C1376.75 167.799 1372.87 162.058 1372.87 151.935V131.036H1382.75V153.849C1382.75 157.727 1384.52 159.842 1388.09 159.842C1391.62 159.842 1393.84 157.727 1393.84 153.849ZM1426.09 167.194H1416.26V139.043H1407.19V131.036H1435.16V139.043H1426.09V167.194ZM1464.7 167.194H1438.99V131.036H1464.4V139.043H1448.82V144.835H1459.86V152.59H1448.82V159.187H1464.7V167.194ZM1499.41 167.194H1488.62L1483.43 154.151H1478.84V167.194H1469.01V131.036H1482.92C1492.75 131.036 1497.69 134.712 1497.69 141.964C1497.69 146.446 1495.52 149.568 1492.2 151.331L1499.41 167.194ZM1478.84 146.496H1482.77C1484.79 146.496 1487.76 146.043 1487.76 142.719C1487.76 139.446 1485.19 139.043 1483.23 139.043H1478.84V146.496ZM1284.61 202.496L1276.49 205.367C1275.43 202.647 1273.42 201.288 1270.85 201.288C1268.83 201.288 1267.12 202.396 1267.12 204.158C1267.12 210.302 1285.46 205.921 1285.46 219.669C1285.46 227.223 1279.52 231.252 1271 231.252C1263.79 231.252 1258.7 228.633 1256.53 221.331L1265.55 218.561C1266.06 221.583 1268.18 223.647 1271.65 223.647C1274.27 223.647 1276.34 222.59 1276.34 220.424C1276.34 213.928 1257.49 218.46 1257.49 204.209C1257.49 198.165 1263.03 193.885 1270.59 193.885C1277.5 193.885 1282.14 196.201 1284.61 202.496ZM1310.55 217.856L1319.88 220.022C1317.06 229.489 1311.06 231.252 1304.41 231.252C1294.73 231.252 1288.78 224.403 1288.78 212.115C1288.78 200.381 1295.18 193.885 1305.06 193.885C1313.18 193.885 1317.96 197.36 1319.43 205.115L1310.35 206.727C1309.5 202.899 1307.48 201.64 1304.86 201.64C1300.98 201.64 1298.61 205.065 1298.61 212.115C1298.61 220.022 1300.83 223.295 1304.71 223.295C1307.13 223.295 1309.5 221.986 1310.55 217.856ZM1333.64 230.647H1323.81V194.489H1333.64V230.647ZM1365.61 230.647H1339.91V194.489H1365.31V202.496H1349.74V208.288H1360.78V216.043H1349.74V222.64H1365.61V230.647ZM1400.93 230.647H1391.2L1379.15 209.496H1379.05V230.647H1369.93V194.489H1380.92L1391.7 214.331H1391.8V194.489H1400.93V230.647ZM1427.45 217.856L1436.77 220.022C1433.95 229.489 1427.95 231.252 1421.3 231.252C1411.62 231.252 1405.68 224.403 1405.68 212.115C1405.68 200.381 1412.08 193.885 1421.96 193.885C1430.07 193.885 1434.86 197.36 1436.32 205.115L1427.25 206.727C1426.39 202.899 1424.37 201.64 1421.75 201.64C1417.87 201.64 1415.5 205.065 1415.5 212.115C1415.5 220.022 1417.72 223.295 1421.6 223.295C1424.02 223.295 1426.39 221.986 1427.45 217.856ZM1466.42 230.647H1440.72V194.489H1466.12V202.496H1450.54V208.288H1461.58V216.043H1450.54V222.64H1466.42V230.647ZM1282.63 294.101H1273.05L1269.12 273.705H1269.02L1264.94 294.101H1255.01L1245.89 257.942H1256.52L1260.2 279.95H1260.3L1264.44 257.942H1274.21L1277.69 279.597H1277.79L1282.08 257.942H1292.01L1282.63 294.101ZM1320.2 294.101H1294.5V257.942H1319.9V265.95H1304.32V271.741H1315.36V279.496H1304.32V286.094H1320.2V294.101ZM1337.83 294.101H1324.53V257.942H1337.68C1348.22 257.942 1352.6 261.165 1352.6 267.108C1352.6 270.532 1350.79 273.504 1347.06 274.964V275.065C1350.99 276.223 1353.76 278.439 1353.76 283.525C1353.76 291.885 1346.2 294.101 1337.83 294.101ZM1334.1 272.043H1338.24C1340.6 272.043 1342.72 271.237 1342.72 268.619C1342.72 266.302 1340.71 265.799 1337.93 265.799H1334.1V272.043ZM1334.1 286.295H1338.14C1342.67 286.295 1343.93 284.734 1343.93 282.568C1343.93 279.647 1341.36 279.043 1338.54 279.043H1334.1V286.295ZM1388.78 294.101H1377.99L1372.8 281.058H1368.22V294.101H1358.39V257.942H1372.3C1382.13 257.942 1387.07 261.619 1387.07 268.871C1387.07 273.353 1384.9 276.475 1381.57 278.237L1388.78 294.101ZM1368.22 273.403H1372.15C1374.16 273.403 1377.14 272.95 1377.14 269.626C1377.14 266.353 1374.57 265.95 1372.6 265.95H1368.22V273.403ZM1402.13 294.101H1392.3V257.942H1402.13V294.101ZM1439.4 294.101H1429.67L1417.62 272.95H1417.52V294.101H1408.4V257.942H1419.39L1430.17 277.784H1430.27V257.942H1439.4V294.101ZM1474.59 294.101H1467.08V291.18H1466.98C1464.41 293.799 1461.58 294.705 1458.05 294.705C1448.93 294.705 1444.14 287.101 1444.14 275.568C1444.14 263.532 1450.34 257.338 1460.02 257.338C1467.98 257.338 1472.67 260.863 1474.23 268.115L1465.41 269.727C1464.56 266.101 1462.64 265.094 1460.02 265.094C1456.29 265.094 1453.97 268.568 1453.97 275.568C1453.97 282.921 1455.58 287.101 1460.57 287.101C1464 287.101 1466.22 285.237 1466.22 282.417C1466.22 282.266 1466.22 282.115 1466.22 281.964H1460.57V275.317H1474.59V294.101Z" fill="#882345"/>
<path d="M164.11 212.087V322.525L65.4634 212.087H14.447V418.313H71.3326V307.875L168.625 418.313H220.996V212.087H164.11Z" fill="#882345"/>
<path d="M427.318 125.539C427.318 118.102 427.318 110.438 427.318 103.001C427.318 96.239 427.318 89.2521 427.318 82.7159C427.318 43.2737 427.318 10.5931 427.318 10.5931H371.788H370.659V82.7159V125.539C370.659 130.497 369.982 135.231 368.176 139.288C366.144 144.471 362.758 149.205 358.244 153.262C349.439 160.699 336.798 165.207 324.383 165.207C311.742 165.207 299.101 160.699 290.523 153.262C285.782 149.205 282.396 144.697 280.591 139.288C279.01 135.231 278.107 130.497 278.107 125.539V82.7159V10.5931H276.979H221.448C221.448 10.5931 221.448 43.2737 221.448 82.7159C221.448 89.2521 221.448 96.239 221.448 103.001C221.448 110.438 221.448 118.102 221.448 125.539V139.288C221.448 184.815 270.658 221.102 322.126 221.778C322.578 221.778 323.255 221.778 323.706 221.778C323.931 221.778 324.157 221.778 324.383 221.778C324.609 221.778 324.609 221.778 324.835 221.778H325.06C325.286 221.778 325.512 221.778 325.738 221.778C326.189 221.778 326.866 221.778 327.317 221.778C378.559 221.102 427.996 185.942 427.996 139.288V125.539H427.318Z" fill="#882345"/>
<path d="M159.144 139.288C149.889 154.613 133.636 164.756 114.9 164.981C114.674 164.981 114.449 164.981 114.223 164.981C85.1026 164.981 61.4003 140.865 61.4003 110.889C61.4003 81.1383 85.1026 56.7968 114.223 56.7968C114.449 56.7968 114.674 56.7968 114.9 56.7968C133.636 57.0222 149.889 67.3899 159.144 82.4906H220.996C220.996 36.0615 172.011 0.901537 120.769 0C120.543 0 120.543 0 120.318 0C119.866 0 119.189 0 118.737 0C118.512 0 118.286 0 118.06 0H117.835C117.609 0 117.609 0 117.383 0C117.157 0 116.931 0 116.706 0C116.254 0 115.577 0 115.126 0H111.063C70.4297 0 34.9891 21.8623 15.5758 54.3176C5.64342 70.7706 0 90.1537 0 110.889C0 131.624 5.64342 150.782 15.5758 167.46C34.9891 199.916 70.4297 221.778 111.063 221.778H115.126C115.577 221.778 116.254 221.778 116.706 221.778C116.931 221.778 117.157 221.778 117.383 221.778C117.609 221.778 117.609 221.778 117.835 221.778H118.06C118.286 221.778 118.512 221.778 118.737 221.778C119.189 221.778 119.866 221.778 120.318 221.778C120.543 221.778 120.543 221.778 120.769 221.778C172.011 220.877 220.996 185.717 220.996 139.288H159.144Z" fill="#882345"/>
<path d="M370.659 212.087L324.157 306.748L277.655 212.087H220.996L295.715 364.446V418.313H352.6V364.446L427.544 212.087H370.659Z" fill="#882345"/>
<path d="M479.689 102.099V24.1162H460.728V10.3677H513.776V24.1162H494.814V102.099H479.689Z" fill="#882345"/>
<path d="M565.018 102.099V61.5299H538.833V102.099H523.709V10.3677H538.833V47.7815H565.018V10.3677H579.916V102.099H565.018Z" fill="#882345"/>
<path d="M591.429 102.099V10.3677H638.383V24.1162H606.553V48.0068H630.256V61.3045H606.553V88.3506H639.963V102.099H591.429Z" fill="#882345"/>
<path d="M728.677 72.123C727.323 82.4906 724.388 90.1537 719.873 95.3375C715.359 100.521 709.038 103.226 700.46 103.226C694.817 103.226 690.301 102.099 686.691 100.071C683.079 97.8168 679.918 94.6614 677.66 90.6045C675.403 86.5475 673.824 81.5891 672.695 75.7291C671.791 69.8692 671.114 63.333 671.114 55.8953C671.114 49.3592 671.565 43.0484 672.695 37.4138C673.824 31.7792 675.403 26.8208 677.66 22.7638C679.918 18.4815 683.079 15.3262 686.691 12.8469C690.527 10.3677 695.042 9.24078 700.46 9.24078C704.975 9.24078 708.587 9.91692 711.747 11.2692C714.907 12.6216 717.616 14.4246 719.647 17.1293C721.679 19.8339 723.485 22.7638 724.614 26.37C725.743 29.9761 726.871 34.2584 727.323 38.9915L713.327 40.3438C711.521 28.8492 707.232 22.9892 700.685 22.9892C695.946 22.9892 692.559 25.6938 690.077 30.8777C687.593 36.0615 686.465 44.4008 686.465 56.1207C686.465 62.4314 686.69 67.8407 687.367 72.123C687.819 76.4053 688.722 80.0114 689.851 82.4906C690.979 85.1952 692.559 86.9983 694.139 88.1253C695.946 89.2521 697.977 89.9284 700.46 89.9284C707.458 89.9284 711.973 83.6176 714.004 70.996L728.677 72.123Z" fill="#882345"/>
<path d="M738.158 102.099V10.3677H753.282V102.099H738.158Z" fill="#882345"/>
<path d="M782.176 102.099V24.1162H763.215V10.3677H816.263V24.1162H797.301V102.099H782.176Z" fill="#882345"/>
<path d="M844.254 102.099V65.1361L821.68 10.3677H837.708L851.704 47.5561H851.929L866.602 10.3677H882.403L859.378 65.1361V102.099H844.254Z" fill="#882345"/>
<path d="M502.263 115.847H517.162V178.278C517.162 188.196 514.904 195.859 510.39 200.817C505.875 206.001 498.651 208.48 488.72 208.48C478.787 208.48 471.789 206.001 467.5 200.817C463.211 195.633 461.179 188.196 461.179 178.278V115.847H476.303V180.307C476.303 185.717 477.432 189.548 479.464 192.028C481.496 194.506 484.656 195.633 489.17 195.633C493.46 195.633 496.846 194.506 499.103 192.028C501.361 189.548 502.489 185.717 502.489 180.307L502.263 115.847Z" fill="#882345"/>
<path d="M571.113 207.579L541.767 144.246H541.541V207.579H527.997V115.847H545.605L570.887 171.517H571.113V115.847H584.883V207.579H571.113Z" fill="#882345"/>
<path d="M595.945 207.579V115.847H611.069V207.579H595.945Z" fill="#882345"/>
<path d="M640.866 207.579L618.743 115.847H634.771L648.992 183.012H649.218L664.116 115.847H680.144L657.795 207.579H640.866Z" fill="#882345"/>
<path d="M687.819 207.579V115.847H734.772V129.596H702.944V153.486H726.645V166.784H702.944V193.83H736.352V207.579H687.819Z" fill="#882345"/>
<path d="M785.337 207.579L772.244 169.714H760.506V207.579H745.381V115.847H769.761C779.468 115.847 786.917 117.876 791.657 121.933C796.398 125.99 798.881 132.301 798.881 141.315C798.881 147.176 797.752 151.909 795.495 155.515C793.238 159.122 790.078 161.826 786.014 163.629L802.041 207.579H785.337ZM769.084 156.867C770.89 156.867 772.47 156.642 774.276 156.192C776.082 155.74 777.437 155.065 778.79 154.163C780.145 153.036 781.273 151.683 781.951 149.881C782.854 148.078 783.08 145.598 783.08 142.668C783.08 139.513 782.628 136.808 781.725 135.005C780.823 133.202 779.694 131.85 778.565 130.948C777.211 130.047 775.63 129.596 774.05 129.37C772.244 129.145 770.664 129.145 768.858 129.145H760.28V157.093L769.084 156.867Z" fill="#882345"/>
<path d="M846.285 140.189C845.383 136.357 844.028 133.202 841.997 130.948C840.191 128.694 837.482 127.567 833.87 127.567C830.71 127.567 828.001 128.469 826.196 130.047C824.389 131.624 823.486 134.104 823.486 137.034C823.486 140.189 824.389 142.894 826.196 145.148C828.001 147.176 830.484 149.205 833.193 151.008C835.902 152.81 839.063 154.613 842.223 156.416C845.383 158.22 848.543 160.249 851.252 162.727C853.961 165.207 856.444 168.137 858.25 171.517C860.055 174.898 860.959 179.181 860.959 184.139C860.959 192.252 858.476 198.338 853.735 202.62C848.995 206.903 842.449 209.157 834.096 209.157C825.97 209.157 819.649 207.128 815.586 203.071C811.296 199.015 808.588 192.929 807.233 184.589L821.229 182.111C822.132 186.844 823.712 190.224 825.518 192.703C827.549 194.958 830.484 196.309 834.547 196.309C837.933 196.309 840.868 195.408 842.9 193.605C844.931 191.802 846.06 189.098 846.06 185.491C846.06 182.111 845.157 179.405 843.351 177.152C841.545 174.898 839.288 172.87 836.354 170.841C833.644 169.038 830.484 167.236 827.324 165.432C824.163 163.629 821.229 161.6 818.294 159.346C815.586 156.867 813.329 154.163 811.296 150.782C809.491 147.401 808.588 143.344 808.588 138.385C808.588 131.174 810.845 125.539 815.134 121.482C819.423 117.425 825.518 115.396 833.193 115.396C837.256 115.396 840.642 115.847 843.577 116.975C846.511 118.102 848.995 119.679 851.026 121.482C853.057 123.51 854.638 125.99 855.992 128.694C857.121 131.399 858.25 134.554 858.927 138.161L846.285 140.189Z" fill="#882345"/>
<path d="M868.633 207.579V115.847H883.758V207.579H868.633Z" fill="#882345"/>
<path d="M912.878 207.579V129.596H893.916V115.847H946.964V129.596H928.002V207.579H912.878Z" fill="#882345"/>
<path d="M974.956 207.579V170.616L952.382 115.847H968.409L982.404 153.036H982.63L997.303 115.847H1013.1L990.08 170.616V207.579H974.956Z" fill="#882345"/>
<path d="M491.203 314.185C480.593 314.185 472.917 310.128 468.177 302.015C463.436 293.901 460.954 282.181 460.954 267.305C460.954 259.643 461.631 253.107 462.76 247.021C463.888 241.162 465.695 236.202 468.177 232.371C470.66 228.314 473.821 225.384 477.658 223.355C481.496 221.327 486.01 220.201 491.428 220.201C502.263 220.201 509.939 224.257 514.679 232.371C519.419 240.485 521.902 251.98 521.902 267.305C521.902 282.406 519.419 293.901 514.679 302.015C509.487 310.128 501.811 314.185 491.203 314.185ZM491.203 301.338C493.685 301.338 495.717 300.663 497.523 299.536C499.329 298.408 500.909 296.38 502.263 293.676C503.618 290.971 504.521 287.59 505.198 283.308C505.875 279.026 506.101 273.842 506.101 267.531C506.101 255.586 504.747 247.021 502.263 241.612C499.78 236.202 495.943 233.723 490.977 233.723C486.01 233.723 482.398 236.428 479.915 241.612C477.432 247.021 476.303 255.586 476.303 267.531C476.303 273.842 476.529 279.026 477.207 283.308C477.884 287.59 478.787 291.196 480.141 293.676C481.496 296.38 483.076 298.408 484.882 299.536C486.687 300.663 488.945 301.338 491.203 301.338Z" fill="#882345"/>
<path d="M531.383 313.059V221.327H579.014V235.076H546.508V258.967H570.661V272.264H546.508V313.059H531.383Z" fill="#882345"/>
<path d="M504.295 418.539L474.95 355.205H474.724V418.539H461.179V326.807H478.787L504.07 382.477H504.295V326.807H518.066V418.539H504.295Z" fill="#882345"/>
<path d="M528.223 418.539V326.807H575.176V340.556H543.348V364.672H567.275V377.97H543.574V405.015H576.982V418.764L528.223 418.539Z" fill="#882345"/>
<path d="M637.48 418.539L627.096 356.108H626.87L616.938 418.539H601.588L583.077 326.807H598.202L609.036 389.69H609.262L619.646 326.807H634.545L644.928 389.464H645.154L655.99 326.807H670.888L652.604 418.539H637.48Z" fill="#882345"/>
<path d="M717.842 418.539V381.576L695.268 326.807H711.295L725.291 363.996H725.517L740.19 326.807H755.991L732.966 381.576V418.539H717.842Z" fill="#882345"/>
<path d="M785.788 419.666C775.178 419.666 767.504 415.609 762.763 407.495C758.023 399.381 755.539 387.661 755.539 372.786C755.539 365.122 756.217 358.586 757.346 352.501C758.474 346.415 760.28 341.683 762.763 337.851C765.246 333.794 768.406 330.864 772.244 328.836C776.082 326.807 780.597 325.68 786.014 325.68C796.85 325.68 804.524 329.737 809.265 337.851C814.005 345.965 816.489 357.459 816.489 372.786C816.489 387.887 814.005 399.381 809.265 407.495C804.073 415.609 796.172 419.666 785.788 419.666ZM785.788 406.819C788.271 406.819 790.303 406.142 792.109 405.015C793.915 403.889 795.495 401.86 796.85 399.155C798.204 396.451 799.107 393.07 799.784 388.788C800.462 384.505 800.686 379.321 800.686 373.01C800.686 361.065 799.333 352.501 796.85 347.091C794.366 341.683 790.529 339.203 785.563 339.203C780.597 339.203 776.985 341.908 774.502 347.091C772.018 352.501 770.89 361.065 770.89 373.01C770.89 379.321 771.116 384.505 771.792 388.788C772.47 393.07 773.373 396.676 774.727 399.155C776.082 401.86 777.662 403.889 779.468 405.015C781.273 406.142 783.305 406.819 785.788 406.819Z" fill="#882345"/>
<path d="M865.474 418.539L852.381 380.674H840.642V418.539H825.518V326.807H849.897C859.604 326.807 867.053 328.836 871.794 332.893C876.534 336.95 879.017 343.26 879.017 352.275C879.017 358.135 877.889 362.869 875.631 366.475C873.374 370.08 870.214 372.786 866.15 374.589L882.177 418.539H865.474ZM849.446 367.827C851.252 367.827 852.832 367.602 854.638 367.151C856.444 366.7 857.798 366.024 859.152 365.122C860.507 363.996 861.636 362.643 862.313 360.84C863.216 359.038 863.442 356.558 863.442 353.628C863.442 350.472 862.99 347.768 862.088 345.965C861.184 344.161 860.055 342.81 858.927 341.908C857.573 341.007 855.992 340.556 854.412 340.33C852.607 340.105 851.026 340.105 849.221 340.105H840.642V368.053L849.446 367.827Z" fill="#882345"/>
<path d="M931.614 418.539L914.233 375.264L904.977 389.464V418.313H890.079V326.582H904.977V366.475H905.203L929.357 326.582H945.384L924.842 359.939L948.093 418.087L931.614 418.539Z" fill="#882345"/>
</g>
<defs>
<clipPath id="clip0_607_110">
<rect width="1500" height="420" fill="white"/>
</clipPath>
</defs>
</svg>
